<svg width="500" height="215" viewBox="0 0 500 215" xmlns="http://www.w3.org/2000/svg">
<rect width="500" height="215" fill="#0b1a2a"/>
<text x="5" y="24" font-size="8" fill="#556">25.2</text>
<text x="5" y="190" font-size="8" fill="#556">11.3</text>
<polyline fill="none" stroke="#00ffcc" stroke-width="2" points="20.0,155.8 44.2,174.1 68.4,82.4 92.6,76.3 116.8,146.0 141.1,172.9 165.3,21.2 189.5,73.8 213.7,135.0 237.9,155.8 262.1,20.0 286.3,92.2 310.5,158.2 334.7,190.0 358.9,51.8 383.2,89.7 407.4,158.2 431.6,188.8 455.8,87.3 480.0,100.7"/>
<polyline fill="none" stroke="#ff9944" stroke-width="1" stroke-dasharray="3,2" opacity="0.7" points="20.0,164.9 44.2,137.4 68.4,110.9 92.6,101.5 116.8,131.7 141.1,113.4 165.3,89.3 189.5,76.7 213.7,121.5 237.9,103.6 262.1,89.3 286.3,90.1 310.5,146.8 334.7,133.3 358.9,110.5 383.2,99.9 407.4,145.6 431.6,144.7 455.8,125.6 480.0,94.0"/>
<text x="10" y="13" font-size="9" fill="#aaa">Temp (°C) — last 20 readings</text>
<text x="495" y="13" font-size="7" fill="#445" text-anchor="end">— MA3</text>
<text x="10" y="212" font-size="8" fill="#445">Updated: 2026-04-22 01:27 UTC</text>
</svg>