<svg width="500" height="215" viewBox="0 0 500 215" xmlns="http://www.w3.org/2000/svg">
<rect width="500" height="215" fill="#0b1a2a"/>
<text x="5" y="24" font-size="8" fill="#556">25.1</text>
<text x="5" y="190" font-size="8" fill="#556">11.0</text>
<polyline fill="none" stroke="#00ffcc" stroke-width="2" points="20.0,149.0 44.2,175.5 68.4,93.5 92.6,117.7 116.8,173.1 141.1,190.0 165.3,52.6 189.5,104.4 213.7,161.1 237.9,176.7 262.1,20.0 286.3,103.2 310.5,143.0 334.7,132.1 358.9,65.8 383.2,108.0 407.4,146.6 431.6,132.1 455.8,65.8 480.0,88.7"/>
<polyline fill="none" stroke="#ff9944" stroke-width="1" stroke-dasharray="3,2" opacity="0.7" points="20.0,162.3 44.2,139.4 68.4,128.9 92.6,128.1 116.8,160.3 141.1,138.6 165.3,115.7 189.5,106.0 213.7,147.4 237.9,119.3 262.1,100.0 286.3,88.7 310.5,126.1 334.7,113.6 358.9,102.0 383.2,106.8 407.4,128.9 431.6,114.8 455.8,95.6 480.0,77.3"/>
<text x="10" y="13" font-size="9" fill="#aaa">Temp (°C) — last 20 readings</text>
<text x="495" y="13" font-size="7" fill="#445" text-anchor="end">— MA3</text>
<text x="10" y="212" font-size="8" fill="#445">Updated: 2026-05-10 01:57 UTC</text>
</svg>