<svg width="500" height="215" viewBox="0 0 500 215" xmlns="http://www.w3.org/2000/svg">
<rect width="500" height="215" fill="#0b1a2a"/>
<text x="5" y="24" font-size="8" fill="#556">23.6</text>
<text x="5" y="190" font-size="8" fill="#556">12.1</text>
<polyline fill="none" stroke="#00ffcc" stroke-width="2" points="20.0,175.2 45.6,178.2 71.1,178.2 96.7,178.2 122.2,179.7 147.8,190.0 173.3,20.0 198.9,62.9 224.4,62.9 250.0,91.0 275.6,172.3 301.1,184.1 326.7,49.6 352.2,83.6 377.8,160.4 403.3,182.6 428.9,71.7 454.4,64.3 480.0,148.6"/>
<polyline fill="none" stroke="#ff9944" stroke-width="1" stroke-dasharray="3,2" opacity="0.7" points="20.0,176.7 45.6,177.2 71.1,178.2 96.7,178.7 122.2,182.6 147.8,129.9 173.3,91.0 198.9,48.6 224.4,72.2 250.0,108.7 275.6,149.1 301.1,135.3 326.7,105.7 352.2,97.9 377.8,142.2 403.3,138.3 428.9,106.2 454.4,94.9 480.0,106.5"/>
<text x="10" y="13" font-size="9" fill="#aaa">Temp (°C) — last 19 readings</text>
<text x="495" y="13" font-size="7" fill="#445" text-anchor="end">— MA3</text>
<text x="10" y="212" font-size="8" fill="#445">Updated: 2026-04-18 06:56 UTC</text>
</svg>