<svg width="500" height="215" viewBox="0 0 500 215" xmlns="http://www.w3.org/2000/svg">
<rect width="500" height="215" fill="#0b1a2a"/>
<text x="5" y="24" font-size="8" fill="#556">25.1</text>
<text x="5" y="190" font-size="8" fill="#556">11.0</text>
<polyline fill="none" stroke="#00ffcc" stroke-width="2" points="20.0,89.9 44.2,123.7 68.4,149.0 92.6,175.5 116.8,93.5 141.1,117.7 165.3,173.1 189.5,190.0 213.7,52.6 237.9,104.4 262.1,161.1 286.3,176.7 310.5,20.0 334.7,103.2 358.9,143.0 383.2,132.1 407.4,65.8 431.6,108.0 455.8,146.6 480.0,132.1"/>
<polyline fill="none" stroke="#ff9944" stroke-width="1" stroke-dasharray="3,2" opacity="0.7" points="20.0,106.8 44.2,120.9 68.4,149.4 92.6,139.4 116.8,128.9 141.1,128.1 165.3,160.3 189.5,138.6 213.7,115.7 237.9,106.0 262.1,147.4 286.3,119.3 310.5,100.0 334.7,88.7 358.9,126.1 383.2,113.6 407.4,102.0 431.6,106.8 455.8,128.9 480.0,139.4"/>
<text x="10" y="13" font-size="9" fill="#aaa">Temp (°C) — last 20 readings</text>
<text x="495" y="13" font-size="7" fill="#445" text-anchor="end">— MA3</text>
<text x="10" y="212" font-size="8" fill="#445">Updated: 2026-05-09 12:53 UTC</text>
</svg>