<svg width="500" height="215" viewBox="0 0 500 215" xmlns="http://www.w3.org/2000/svg">
<rect width="500" height="215" fill="#0b1a2a"/>
<text x="5" y="24" font-size="8" fill="#556">25.2</text>
<text x="5" y="190" font-size="8" fill="#556">11.3</text>
<polyline fill="none" stroke="#00ffcc" stroke-width="2" points="20.0,92.2 44.2,155.8 68.4,174.1 92.6,82.4 116.8,76.3 141.1,146.0 165.3,172.9 189.5,21.2 213.7,73.8 237.9,135.0 262.1,155.8 286.3,20.0 310.5,92.2 334.7,158.2 358.9,190.0 383.2,51.8 407.4,89.7 431.6,158.2 455.8,188.8 480.0,87.3"/>
<polyline fill="none" stroke="#ff9944" stroke-width="1" stroke-dasharray="3,2" opacity="0.7" points="20.0,124.0 44.2,140.7 68.4,137.4 92.6,110.9 116.8,101.5 141.1,131.7 165.3,113.4 189.5,89.3 213.7,76.7 237.9,121.5 262.1,103.6 286.3,89.3 310.5,90.1 334.7,146.8 358.9,133.3 383.2,110.5 407.4,99.9 431.6,145.6 455.8,144.7 480.0,138.0"/>
<text x="10" y="13" font-size="9" fill="#aaa">Temp (°C) — last 20 readings</text>
<text x="495" y="13" font-size="7" fill="#445" text-anchor="end">— MA3</text>
<text x="10" y="212" font-size="8" fill="#445">Updated: 2026-04-21 18:58 UTC</text>
</svg>