<svg width="500" height="215" viewBox="0 0 500 215" xmlns="http://www.w3.org/2000/svg">
<rect width="500" height="215" fill="#0b1a2a"/>
<text x="5" y="24" font-size="8" fill="#556">23.8</text>
<text x="5" y="190" font-size="8" fill="#556">9.7</text>
<polyline fill="none" stroke="#00ffcc" stroke-width="2" points="20.0,110.4 44.2,156.2 68.4,190.0 92.6,33.3 116.8,98.4 141.1,159.9 165.3,180.4 189.5,20.0 213.7,93.5 237.9,143.0 262.1,162.3 286.3,38.1 310.5,91.1 334.7,137.0 358.9,115.2 383.2,65.8 407.4,77.9 431.6,121.3 455.8,150.2 480.0,98.4"/>
<polyline fill="none" stroke="#ff9944" stroke-width="1" stroke-dasharray="3,2" opacity="0.7" points="20.0,133.3 44.2,152.2 68.4,126.5 92.6,107.2 116.8,97.2 141.1,146.2 165.3,120.1 189.5,98.0 213.7,85.5 237.9,132.9 262.1,114.4 286.3,97.2 310.5,88.7 334.7,114.4 358.9,106.0 383.2,86.3 407.4,88.3 431.6,116.5 455.8,123.3 480.0,124.3"/>
<text x="10" y="13" font-size="9" fill="#aaa">Temp (°C) — last 20 readings</text>
<text x="495" y="13" font-size="7" fill="#445" text-anchor="end">— MA3</text>
<text x="10" y="212" font-size="8" fill="#445">Updated: 2026-05-02 18:43 UTC</text>
</svg>