<svg width="500" height="215" viewBox="0 0 500 215" xmlns="http://www.w3.org/2000/svg">
<rect width="500" height="215" fill="#0b1a2a"/>
<text x="5" y="24" font-size="8" fill="#556">23.8</text>
<text x="5" y="190" font-size="8" fill="#556">9.7</text>
<polyline fill="none" stroke="#00ffcc" stroke-width="2" points="20.0,190.0 44.2,33.3 68.4,98.4 92.6,159.9 116.8,180.4 141.1,20.0 165.3,93.5 189.5,143.0 213.7,162.3 237.9,38.1 262.1,91.1 286.3,137.0 310.5,115.2 334.7,65.8 358.9,77.9 383.2,121.3 407.4,150.2 431.6,98.4 455.8,86.3 480.0,135.7"/>
<polyline fill="none" stroke="#ff9944" stroke-width="1" stroke-dasharray="3,2" opacity="0.7" points="20.0,111.6 44.2,107.2 68.4,97.2 92.6,146.2 116.8,120.1 141.1,98.0 165.3,85.5 189.5,132.9 213.7,114.4 237.9,97.2 262.1,88.7 286.3,114.4 310.5,106.0 334.7,86.3 358.9,88.3 383.2,116.5 407.4,123.3 431.6,111.6 455.8,106.8 480.0,111.0"/>
<text x="10" y="13" font-size="9" fill="#aaa">Temp (°C) — last 20 readings</text>
<text x="495" y="13" font-size="7" fill="#445" text-anchor="end">— MA3</text>
<text x="10" y="212" font-size="8" fill="#445">Updated: 2026-05-03 07:47 UTC</text>
</svg>