<svg width="500" height="215" viewBox="0 0 500 215" xmlns="http://www.w3.org/2000/svg">
<rect width="500" height="215" fill="#0b1a2a"/>
<text x="5" y="24" font-size="8" fill="#556">22.4</text>
<text x="5" y="190" font-size="8" fill="#556">10.9</text>
<polyline fill="none" stroke="#00ffcc" stroke-width="2" points="20.0,182.6 44.2,59.9 68.4,76.2 92.6,153.0 116.8,190.0 141.1,54.0 165.3,96.9 189.5,154.5 213.7,187.0 237.9,30.3 262.1,74.7 286.3,141.2 310.5,170.8 334.7,20.0 358.9,70.3 383.2,127.9 407.4,127.9 431.6,86.5 455.8,132.3 480.0,150.1"/>
<polyline fill="none" stroke="#ff9944" stroke-width="1" stroke-dasharray="3,2" opacity="0.7" points="20.0,121.3 44.2,106.2 68.4,96.4 92.6,139.7 116.8,132.3 141.1,113.6 165.3,101.8 189.5,146.1 213.7,124.0 237.9,97.4 262.1,82.1 286.3,128.9 310.5,110.7 334.7,87.0 358.9,72.7 383.2,108.7 407.4,114.1 431.6,115.6 455.8,123.0 480.0,141.2"/>
<text x="10" y="13" font-size="9" fill="#aaa">Temp (°C) — last 20 readings</text>
<text x="495" y="13" font-size="7" fill="#445" text-anchor="end">— MA3</text>
<text x="10" y="212" font-size="8" fill="#445">Updated: 2026-04-26 07:16 UTC</text>
</svg>