<svg width="500" height="215" viewBox="0 0 500 215" xmlns="http://www.w3.org/2000/svg">
<rect width="500" height="215" fill="#0b1a2a"/>
<text x="5" y="24" font-size="8" fill="#556">24.6</text>
<text x="5" y="190" font-size="8" fill="#556">13.6</text>
<polyline fill="none" stroke="#00ffcc" stroke-width="2" points="20.0,173.0 44.2,160.6 68.4,20.0 92.6,74.1 116.8,180.7 141.1,177.6 165.3,149.8 189.5,108.1 213.7,154.5 237.9,151.4 262.1,61.7 286.3,123.5 310.5,190.0 334.7,171.5 358.9,95.7 383.2,114.3 407.4,183.8 431.6,157.5 455.8,72.5 480.0,120.5"/>
<polyline fill="none" stroke="#ff9944" stroke-width="1" stroke-dasharray="3,2" opacity="0.7" points="20.0,166.8 44.2,117.9 68.4,84.9 92.6,91.6 116.8,144.2 141.1,169.4 165.3,145.2 189.5,137.5 213.7,138.0 237.9,122.5 262.1,112.2 286.3,125.1 310.5,161.7 334.7,152.4 358.9,127.2 383.2,131.3 407.4,151.9 431.6,138.0 455.8,116.8 480.0,96.5"/>
<text x="10" y="13" font-size="9" fill="#aaa">Temp (°C) — last 20 readings</text>
<text x="495" y="13" font-size="7" fill="#445" text-anchor="end">— MA3</text>
<text x="10" y="212" font-size="8" fill="#445">Updated: 2026-05-16 02:00 UTC</text>
</svg>