<svg width="500" height="215" viewBox="0 0 500 215" xmlns="http://www.w3.org/2000/svg">
<rect width="500" height="215" fill="#0b1a2a"/>
<text x="5" y="24" font-size="8" fill="#556">25.1</text>
<text x="5" y="190" font-size="8" fill="#556">11.0</text>
<polyline fill="none" stroke="#00ffcc" stroke-width="2" points="20.0,173.1 44.2,180.4 68.4,89.9 92.6,123.7 116.8,149.0 141.1,175.5 165.3,93.5 189.5,117.7 213.7,173.1 237.9,190.0 262.1,52.6 286.3,104.4 310.5,161.1 334.7,176.7 358.9,20.0 383.2,103.2 407.4,143.0 431.6,132.1 455.8,65.8 480.0,108.0"/>
<polyline fill="none" stroke="#ff9944" stroke-width="1" stroke-dasharray="3,2" opacity="0.7" points="20.0,176.7 44.2,147.8 68.4,131.3 92.6,120.9 116.8,149.4 141.1,139.4 165.3,128.9 189.5,128.1 213.7,160.3 237.9,138.6 262.1,115.7 286.3,106.0 310.5,147.4 334.7,119.3 358.9,100.0 383.2,88.7 407.4,126.1 431.6,113.6 455.8,102.0 480.0,86.9"/>
<text x="10" y="13" font-size="9" fill="#aaa">Temp (°C) — last 20 readings</text>
<text x="495" y="13" font-size="7" fill="#445" text-anchor="end">— MA3</text>
<text x="10" y="212" font-size="8" fill="#445">Updated: 2026-05-09 01:58 UTC</text>
</svg>