<svg width="500" height="215" viewBox="0 0 500 215" xmlns="http://www.w3.org/2000/svg">
<rect width="500" height="215" fill="#0b1a2a"/>
<text x="5" y="24" font-size="8" fill="#556">24.6</text>
<text x="5" y="190" font-size="8" fill="#556">13.6</text>
<polyline fill="none" stroke="#00ffcc" stroke-width="2" points="20.0,106.5 44.2,173.0 68.4,160.6 92.6,20.0 116.8,74.1 141.1,180.7 165.3,177.6 189.5,149.8 213.7,108.1 237.9,154.5 262.1,151.4 286.3,61.7 310.5,123.5 334.7,190.0 358.9,171.5 383.2,95.7 407.4,114.3 431.6,183.8 455.8,157.5 480.0,72.5"/>
<polyline fill="none" stroke="#ff9944" stroke-width="1" stroke-dasharray="3,2" opacity="0.7" points="20.0,139.8 44.2,146.7 68.4,117.9 92.6,84.9 116.8,91.6 141.1,144.2 165.3,169.4 189.5,145.2 213.7,137.5 237.9,138.0 262.1,122.5 286.3,112.2 310.5,125.1 334.7,161.7 358.9,152.4 383.2,127.2 407.4,131.3 431.6,151.9 455.8,138.0 480.0,115.0"/>
<text x="10" y="13" font-size="9" fill="#aaa">Temp (°C) — last 20 readings</text>
<text x="495" y="13" font-size="7" fill="#445" text-anchor="end">— MA3</text>
<text x="10" y="212" font-size="8" fill="#445">Updated: 2026-05-15 19:16 UTC</text>
</svg>