<svg width="500" height="215" viewBox="0 0 500 215" xmlns="http://www.w3.org/2000/svg">
<rect width="500" height="215" fill="#0b1a2a"/>
<text x="5" y="24" font-size="8" fill="#556">23.8</text>
<text x="5" y="190" font-size="8" fill="#556">9.7</text>
<polyline fill="none" stroke="#00ffcc" stroke-width="2" points="20.0,143.0 44.2,155.0 68.4,103.2 92.6,116.5 116.8,140.6 141.1,164.7 165.3,71.8 189.5,110.4 213.7,156.2 237.9,190.0 262.1,33.3 286.3,98.4 310.5,159.9 334.7,180.4 358.9,20.0 383.2,93.5 407.4,143.0 431.6,162.3 455.8,38.1 480.0,91.1"/>
<polyline fill="none" stroke="#ff9944" stroke-width="1" stroke-dasharray="3,2" opacity="0.7" points="20.0,149.0 44.2,133.7 68.4,124.9 92.6,120.1 116.8,140.6 141.1,125.7 165.3,115.7 189.5,112.8 213.7,152.2 237.9,126.5 262.1,107.2 286.3,97.2 310.5,146.2 334.7,120.1 358.9,98.0 383.2,85.5 407.4,132.9 431.6,114.4 455.8,97.2 480.0,64.6"/>
<text x="10" y="13" font-size="9" fill="#aaa">Temp (°C) — last 20 readings</text>
<text x="495" y="13" font-size="7" fill="#445" text-anchor="end">— MA3</text>
<text x="10" y="212" font-size="8" fill="#445">Updated: 2026-05-01 02:03 UTC</text>
</svg>