<svg width="500" height="215" viewBox="0 0 500 215" xmlns="http://www.w3.org/2000/svg">
<rect width="500" height="215" fill="#0b1a2a"/>
<text x="5" y="24" font-size="8" fill="#556">25.1</text>
<text x="5" y="190" font-size="8" fill="#556">11.0</text>
<polyline fill="none" stroke="#00ffcc" stroke-width="2" points="20.0,117.7 44.2,173.1 68.4,190.0 92.6,52.6 116.8,104.4 141.1,161.1 165.3,176.7 189.5,20.0 213.7,103.2 237.9,143.0 262.1,132.1 286.3,65.8 310.5,108.0 334.7,146.6 358.9,132.1 383.2,65.8 407.4,88.7 431.6,161.1 455.8,135.7 480.0,38.1"/>
<polyline fill="none" stroke="#ff9944" stroke-width="1" stroke-dasharray="3,2" opacity="0.7" points="20.0,145.4 44.2,160.3 68.4,138.6 92.6,115.7 116.8,106.0 141.1,147.4 165.3,119.3 189.5,100.0 213.7,88.7 237.9,126.1 262.1,113.6 286.3,102.0 310.5,106.8 334.7,128.9 358.9,114.8 383.2,95.6 407.4,105.2 431.6,128.5 455.8,111.6 480.0,86.9"/>
<text x="10" y="13" font-size="9" fill="#aaa">Temp (°C) — last 20 readings</text>
<text x="495" y="13" font-size="7" fill="#445" text-anchor="end">— MA3</text>
<text x="10" y="212" font-size="8" fill="#445">Updated: 2026-05-10 18:45 UTC</text>
</svg>