<svg width="500" height="215" viewBox="0 0 500 215" xmlns="http://www.w3.org/2000/svg">
<rect width="500" height="215" fill="#0b1a2a"/>
<text x="5" y="24" font-size="8" fill="#556">23.6</text>
<text x="5" y="190" font-size="8" fill="#556">12.1</text>
<polyline fill="none" stroke="#00ffcc" stroke-width="2" points="20.0,175.2 50.7,178.2 81.3,178.2 112.0,178.2 142.7,179.7 173.3,190.0 204.0,20.0 234.7,62.9 265.3,62.9 296.0,91.0 326.7,172.3 357.3,184.1 388.0,49.6 418.7,83.6 449.3,160.4 480.0,182.6"/>
<polyline fill="none" stroke="#ff9944" stroke-width="1" stroke-dasharray="3,2" opacity="0.7" points="20.0,176.7 50.7,177.2 81.3,178.2 112.0,178.7 142.7,182.6 173.3,129.9 204.0,91.0 234.7,48.6 265.3,72.2 296.0,108.7 326.7,149.1 357.3,135.3 388.0,105.7 418.7,97.9 449.3,142.2 480.0,171.5"/>
<text x="10" y="13" font-size="9" fill="#aaa">Temp (°C) — last 16 readings</text>
<text x="495" y="13" font-size="7" fill="#445" text-anchor="end">— MA3</text>
<text x="10" y="212" font-size="8" fill="#445">Updated: 2026-04-17 12:56 UTC</text>
</svg>