<svg width="500" height="215" viewBox="0 0 500 215" xmlns="http://www.w3.org/2000/svg">
<rect width="500" height="215" fill="#0b1a2a"/>
<text x="5" y="24" font-size="8" fill="#556">25.1</text>
<text x="5" y="190" font-size="8" fill="#556">11.0</text>
<polyline fill="none" stroke="#00ffcc" stroke-width="2" points="20.0,93.5 44.2,117.7 68.4,173.1 92.6,190.0 116.8,52.6 141.1,104.4 165.3,161.1 189.5,176.7 213.7,20.0 237.9,103.2 262.1,143.0 286.3,132.1 310.5,65.8 334.7,108.0 358.9,146.6 383.2,132.1 407.4,65.8 431.6,88.7 455.8,161.1 480.0,135.7"/>
<polyline fill="none" stroke="#ff9944" stroke-width="1" stroke-dasharray="3,2" opacity="0.7" points="20.0,105.6 44.2,128.1 68.4,160.3 92.6,138.6 116.8,115.7 141.1,106.0 165.3,147.4 189.5,119.3 213.7,100.0 237.9,88.7 262.1,126.1 286.3,113.6 310.5,102.0 334.7,106.8 358.9,128.9 383.2,114.8 407.4,95.6 431.6,105.2 455.8,128.5 480.0,148.4"/>
<text x="10" y="13" font-size="9" fill="#aaa">Temp (°C) — last 20 readings</text>
<text x="495" y="13" font-size="7" fill="#445" text-anchor="end">— MA3</text>
<text x="10" y="212" font-size="8" fill="#445">Updated: 2026-05-10 12:54 UTC</text>
</svg>