<svg width="500" height="215" viewBox="0 0 500 215" xmlns="http://www.w3.org/2000/svg">
<rect width="500" height="215" fill="#0b1a2a"/>
<text x="5" y="24" font-size="8" fill="#556">22.0</text>
<text x="5" y="190" font-size="8" fill="#556">13.6</text>
<polyline fill="none" stroke="#00ffcc" stroke-width="2" points="20.0,173.8 44.2,137.4 68.4,82.7 92.6,143.5 116.8,139.4 141.1,22.0 165.3,103.0 189.5,190.0 213.7,165.7 237.9,66.5 262.1,90.8 286.3,181.9 310.5,147.5 334.7,36.2 358.9,98.9 383.2,143.5 407.4,143.5 431.6,20.0 455.8,82.7 480.0,133.3"/>
<polyline fill="none" stroke="#ff9944" stroke-width="1" stroke-dasharray="3,2" opacity="0.7" points="20.0,155.6 44.2,131.3 68.4,121.2 92.6,121.9 116.8,101.6 141.1,88.1 165.3,105.0 189.5,152.9 213.7,140.8 237.9,107.7 262.1,113.1 286.3,140.1 310.5,121.9 334.7,94.2 358.9,92.9 383.2,128.6 407.4,102.3 431.6,82.1 455.8,78.7 480.0,108.0"/>
<text x="10" y="13" font-size="9" fill="#aaa">Temp (°C) — last 20 readings</text>
<text x="495" y="13" font-size="7" fill="#445" text-anchor="end">— MA3</text>
<text x="10" y="212" font-size="8" fill="#445">Updated: 2026-05-17 08:11 UTC</text>
</svg>