<svg width="500" height="215" viewBox="0 0 500 215" xmlns="http://www.w3.org/2000/svg">
<rect width="500" height="215" fill="#0b1a2a"/>
<text x="5" y="24" font-size="8" fill="#556">24.6</text>
<text x="5" y="190" font-size="8" fill="#556">13.4</text>
<polyline fill="none" stroke="#00ffcc" stroke-width="2" points="20.0,190.0 44.2,158.1 68.4,35.2 92.6,105.0 116.8,170.3 141.1,158.1 165.3,20.0 189.5,73.1 213.7,177.9 237.9,174.8 262.1,147.5 286.3,106.5 310.5,152.1 334.7,149.0 358.9,61.0 383.2,121.7 407.4,187.0 431.6,168.8 455.8,94.4 480.0,112.6"/>
<polyline fill="none" stroke="#ff9944" stroke-width="1" stroke-dasharray="3,2" opacity="0.7" points="20.0,174.1 44.2,127.8 68.4,99.4 92.6,103.5 116.8,144.5 141.1,116.1 165.3,83.7 189.5,90.3 213.7,141.9 237.9,166.7 262.1,142.9 286.3,135.4 310.5,135.9 334.7,120.7 358.9,110.6 383.2,123.2 407.4,159.1 431.6,150.0 455.8,125.2 480.0,103.5"/>
<text x="10" y="13" font-size="9" fill="#aaa">Temp (°C) — last 20 readings</text>
<text x="495" y="13" font-size="7" fill="#445" text-anchor="end">— MA3</text>
<text x="10" y="212" font-size="8" fill="#445">Updated: 2026-05-15 02:09 UTC</text>
</svg>