<svg width="500" height="215" viewBox="0 0 500 215" xmlns="http://www.w3.org/2000/svg">
<rect width="500" height="215" fill="#0b1a2a"/>
<text x="5" y="24" font-size="8" fill="#556">23.8</text>
<text x="5" y="190" font-size="8" fill="#556">11.8</text>
<polyline fill="none" stroke="#00ffcc" stroke-width="2" points="20.0,20.0 44.2,106.4 68.4,164.5 92.6,187.2 116.8,41.2 141.1,103.6 165.3,157.4 189.5,131.9 213.7,73.8 237.9,88.0 262.1,139.0 286.3,173.0 310.5,112.1 334.7,97.9 358.9,156.0 383.2,158.8 407.4,122.0 431.6,126.2 455.8,181.5 480.0,190.0"/>
<polyline fill="none" stroke="#ff9944" stroke-width="1" stroke-dasharray="3,2" opacity="0.7" points="20.0,63.2 44.2,97.0 68.4,152.7 92.6,131.0 116.8,110.7 141.1,100.8 165.3,131.0 189.5,121.1 213.7,97.9 237.9,100.3 262.1,133.3 286.3,141.4 310.5,127.7 334.7,122.0 358.9,137.6 383.2,145.6 407.4,135.7 431.6,143.2 455.8,165.9 480.0,185.8"/>
<text x="10" y="13" font-size="9" fill="#aaa">Temp (°C) — last 20 readings</text>
<text x="495" y="13" font-size="7" fill="#445" text-anchor="end">— MA3</text>
<text x="10" y="212" font-size="8" fill="#445">Updated: 2026-05-04 13:22 UTC</text>
</svg>