<svg width="500" height="215" viewBox="0 0 500 215" xmlns="http://www.w3.org/2000/svg">
<rect width="500" height="215" fill="#0b1a2a"/>
<text x="5" y="24" font-size="8" fill="#556">24.6</text>
<text x="5" y="190" font-size="8" fill="#556">13.6</text>
<polyline fill="none" stroke="#00ffcc" stroke-width="2" points="20.0,160.6 44.2,35.5 68.4,106.5 92.6,173.0 116.8,160.6 141.1,20.0 165.3,74.1 189.5,180.7 213.7,177.6 237.9,149.8 262.1,108.1 286.3,154.5 310.5,151.4 334.7,61.7 358.9,123.5 383.2,190.0 407.4,171.5 431.6,95.7 455.8,114.3 480.0,183.8"/>
<polyline fill="none" stroke="#ff9944" stroke-width="1" stroke-dasharray="3,2" opacity="0.7" points="20.0,98.0 44.2,100.9 68.4,105.0 92.6,146.7 116.8,117.9 141.1,84.9 165.3,91.6 189.5,144.2 213.7,169.4 237.9,145.2 262.1,137.5 286.3,138.0 310.5,122.5 334.7,112.2 358.9,125.1 383.2,161.7 407.4,152.4 431.6,127.2 455.8,131.3 480.0,149.0"/>
<text x="10" y="13" font-size="9" fill="#aaa">Temp (°C) — last 20 readings</text>
<text x="495" y="13" font-size="7" fill="#445" text-anchor="end">— MA3</text>
<text x="10" y="212" font-size="8" fill="#445">Updated: 2026-05-15 08:38 UTC</text>
</svg>