<svg width="500" height="215" viewBox="0 0 500 215" xmlns="http://www.w3.org/2000/svg">
<rect width="500" height="215" fill="#0b1a2a"/>
<text x="5" y="24" font-size="8" fill="#556">23.8</text>
<text x="5" y="190" font-size="8" fill="#556">9.7</text>
<polyline fill="none" stroke="#00ffcc" stroke-width="2" points="20.0,124.9 44.2,124.9 68.4,91.1 92.6,128.5 116.8,143.0 141.1,155.0 165.3,103.2 189.5,116.5 213.7,140.6 237.9,164.7 262.1,71.8 286.3,110.4 310.5,156.2 334.7,190.0 358.9,33.3 383.2,98.4 407.4,159.9 431.6,180.4 455.8,20.0 480.0,93.5"/>
<polyline fill="none" stroke="#ff9944" stroke-width="1" stroke-dasharray="3,2" opacity="0.7" points="20.0,124.9 44.2,113.6 68.4,114.8 92.6,120.9 116.8,142.2 141.1,133.7 165.3,124.9 189.5,120.1 213.7,140.6 237.9,125.7 262.1,115.7 286.3,112.8 310.5,152.2 334.7,126.5 358.9,107.2 383.2,97.2 407.4,146.2 431.6,120.1 455.8,98.0 480.0,56.8"/>
<text x="10" y="13" font-size="9" fill="#aaa">Temp (°C) — last 20 readings</text>
<text x="495" y="13" font-size="7" fill="#445" text-anchor="end">— MA3</text>
<text x="10" y="212" font-size="8" fill="#445">Updated: 2026-04-30 02:00 UTC</text>
</svg>