<svg width="500" height="215" viewBox="0 0 500 215" xmlns="http://www.w3.org/2000/svg">
<rect width="500" height="215" fill="#0b1a2a"/>
<text x="5" y="24" font-size="8" fill="#556">20.0</text>
<text x="5" y="190" font-size="8" fill="#556">11.8</text>
<polyline fill="none" stroke="#00ffcc" stroke-width="2" points="20.0,142.3 44.2,105.0 68.4,20.0 92.6,40.7 116.8,115.4 141.1,165.1 165.3,76.0 189.5,55.2 213.7,140.2 237.9,144.4 262.1,90.5 286.3,96.7 310.5,177.6 334.7,190.0 358.9,34.5 383.2,92.6 407.4,136.1 431.6,181.7 455.8,40.7 480.0,82.2"/>
<polyline fill="none" stroke="#ff9944" stroke-width="1" stroke-dasharray="3,2" opacity="0.7" points="20.0,123.7 44.2,89.1 68.4,55.2 92.6,58.7 116.8,107.1 141.1,118.8 165.3,98.8 189.5,90.5 213.7,113.3 237.9,125.0 262.1,110.5 286.3,121.6 310.5,154.8 334.7,134.0 358.9,105.7 383.2,87.7 407.4,136.8 431.6,119.5 455.8,101.5 480.0,61.5"/>
<text x="10" y="13" font-size="9" fill="#aaa">Temp (°C) — last 20 readings</text>
<text x="495" y="13" font-size="7" fill="#445" text-anchor="end">— MA3</text>
<text x="10" y="212" font-size="8" fill="#445">Updated: 2026-05-06 01:54 UTC</text>
</svg>