<svg width="500" height="215" viewBox="0 0 500 215" xmlns="http://www.w3.org/2000/svg">
<rect width="500" height="215" fill="#0b1a2a"/>
<text x="5" y="24" font-size="8" fill="#556">22.4</text>
<text x="5" y="190" font-size="8" fill="#556">11.1</text>
<polyline fill="none" stroke="#00ffcc" stroke-width="2" points="20.0,54.6 44.2,98.2 68.4,156.9 92.6,190.0 116.8,30.5 141.1,75.7 165.3,143.4 189.5,173.5 213.7,20.0 237.9,71.2 262.1,129.8 286.3,129.8 310.5,87.7 334.7,134.3 358.9,152.4 383.2,167.4 407.4,102.7 431.6,119.3 455.8,149.4 480.0,179.5"/>
<polyline fill="none" stroke="#ff9944" stroke-width="1" stroke-dasharray="3,2" opacity="0.7" points="20.0,76.4 44.2,103.2 68.4,148.4 92.6,125.8 116.8,98.7 141.1,83.2 165.3,130.8 189.5,112.3 213.7,88.2 237.9,73.7 262.1,110.3 286.3,115.8 310.5,117.3 334.7,124.8 358.9,151.4 383.2,140.9 407.4,129.8 431.6,123.8 455.8,149.4 480.0,164.4"/>
<text x="10" y="13" font-size="9" fill="#aaa">Temp (°C) — last 20 readings</text>
<text x="495" y="13" font-size="7" fill="#445" text-anchor="end">— MA3</text>
<text x="10" y="212" font-size="8" fill="#445">Updated: 2026-04-27 13:17 UTC</text>
</svg>