<svg width="500" height="215" viewBox="0 0 500 215" xmlns="http://www.w3.org/2000/svg">
<rect width="500" height="215" fill="#0b1a2a"/>
<text x="5" y="24" font-size="8" fill="#556">25.2</text>
<text x="5" y="190" font-size="8" fill="#556">10.9</text>
<polyline fill="none" stroke="#00ffcc" stroke-width="2" points="20.0,20.0 44.2,90.1 68.4,154.3 92.6,185.2 116.8,50.9 141.1,87.8 165.3,154.3 189.5,184.1 213.7,85.4 237.9,98.5 262.1,160.3 286.3,190.0 310.5,80.6 334.7,115.1 358.9,161.5 383.2,187.6 407.4,61.6 431.6,97.3 455.8,150.8 480.0,174.5"/>
<polyline fill="none" stroke="#ff9944" stroke-width="1" stroke-dasharray="3,2" opacity="0.7" points="20.0,55.1 44.2,88.2 68.4,143.2 92.6,130.2 116.8,108.0 141.1,97.7 165.3,142.1 189.5,141.3 213.7,122.6 237.9,114.7 262.1,149.6 286.3,143.6 310.5,128.6 334.7,119.1 358.9,154.7 383.2,136.9 407.4,115.5 431.6,103.2 455.8,140.9 480.0,162.7"/>
<text x="10" y="13" font-size="9" fill="#aaa">Temp (°C) — last 20 readings</text>
<text x="495" y="13" font-size="7" fill="#445" text-anchor="end">— MA3</text>
<text x="10" y="212" font-size="8" fill="#445">Updated: 2026-04-24 12:59 UTC</text>
</svg>