<svg width="500" height="215" viewBox="0 0 500 215" xmlns="http://www.w3.org/2000/svg">
<rect width="500" height="215" fill="#0b1a2a"/>
<text x="5" y="24" font-size="8" fill="#556">20.0</text>
<text x="5" y="190" font-size="8" fill="#556">11.8</text>
<polyline fill="none" stroke="#00ffcc" stroke-width="2" points="20.0,105.0 44.2,20.0 68.4,40.7 92.6,115.4 116.8,165.1 141.1,76.0 165.3,55.2 189.5,140.2 213.7,144.4 237.9,90.5 262.1,96.7 286.3,177.6 310.5,190.0 334.7,34.5 358.9,92.6 383.2,136.1 407.4,181.7 431.6,40.7 455.8,82.2 480.0,177.6"/>
<polyline fill="none" stroke="#ff9944" stroke-width="1" stroke-dasharray="3,2" opacity="0.7" points="20.0,62.5 44.2,55.2 68.4,58.7 92.6,107.1 116.8,118.8 141.1,98.8 165.3,90.5 189.5,113.3 213.7,125.0 237.9,110.5 262.1,121.6 286.3,154.8 310.5,134.0 334.7,105.7 358.9,87.7 383.2,136.8 407.4,119.5 431.6,101.5 455.8,100.2 480.0,129.9"/>
<text x="10" y="13" font-size="9" fill="#aaa">Temp (°C) — last 20 readings</text>
<text x="495" y="13" font-size="7" fill="#445" text-anchor="end">— MA3</text>
<text x="10" y="212" font-size="8" fill="#445">Updated: 2026-05-06 08:07 UTC</text>
</svg>