<svg width="500" height="215" viewBox="0 0 500 215" xmlns="http://www.w3.org/2000/svg">
<rect width="500" height="215" fill="#0b1a2a"/>
<text x="5" y="24" font-size="8" fill="#556">24.6</text>
<text x="5" y="190" font-size="8" fill="#556">13.4</text>
<polyline fill="none" stroke="#00ffcc" stroke-width="2" points="20.0,98.9 44.2,190.0 68.4,158.1 92.6,35.2 116.8,105.0 141.1,170.3 165.3,158.1 189.5,20.0 213.7,73.1 237.9,177.9 262.1,174.8 286.3,147.5 310.5,106.5 334.7,152.1 358.9,149.0 383.2,61.0 407.4,121.7 431.6,187.0 455.8,168.8 480.0,94.4"/>
<polyline fill="none" stroke="#ff9944" stroke-width="1" stroke-dasharray="3,2" opacity="0.7" points="20.0,144.5 44.2,149.0 68.4,127.8 92.6,99.4 116.8,103.5 141.1,144.5 165.3,116.1 189.5,83.7 213.7,90.3 237.9,141.9 262.1,166.7 286.3,142.9 310.5,135.4 334.7,135.9 358.9,120.7 383.2,110.6 407.4,123.2 431.6,159.1 455.8,150.0 480.0,131.6"/>
<text x="10" y="13" font-size="9" fill="#aaa">Temp (°C) — last 20 readings</text>
<text x="495" y="13" font-size="7" fill="#445" text-anchor="end">— MA3</text>
<text x="10" y="212" font-size="8" fill="#445">Updated: 2026-05-14 19:27 UTC</text>
</svg>