<svg width="500" height="215" viewBox="0 0 500 215" xmlns="http://www.w3.org/2000/svg">
<rect width="500" height="215" fill="#0b1a2a"/>
<text x="5" y="24" font-size="8" fill="#556">25.1</text>
<text x="5" y="190" font-size="8" fill="#556">13.4</text>
<polyline fill="none" stroke="#00ffcc" stroke-width="2" points="20.0,20.0 44.2,120.3 68.4,168.2 92.6,155.1 116.8,75.2 141.1,126.1 165.3,172.6 189.5,155.1 213.7,75.2 237.9,102.8 262.1,190.0 286.3,159.5 310.5,41.8 334.7,108.6 358.9,171.1 383.2,159.5 407.4,27.3 431.6,78.1 455.8,178.4 480.0,175.5"/>
<polyline fill="none" stroke="#ff9944" stroke-width="1" stroke-dasharray="3,2" opacity="0.7" points="20.0,70.1 44.2,102.8 68.4,147.9 92.6,132.8 116.8,118.8 141.1,124.6 165.3,151.3 189.5,134.3 213.7,111.1 237.9,122.7 262.1,150.8 286.3,130.4 310.5,103.3 334.7,107.2 358.9,146.4 383.2,119.3 407.4,88.3 431.6,94.6 455.8,144.0 480.0,176.9"/>
<text x="10" y="13" font-size="9" fill="#aaa">Temp (°C) — last 20 readings</text>
<text x="495" y="13" font-size="7" fill="#445" text-anchor="end">— MA3</text>
<text x="10" y="212" font-size="8" fill="#445">Updated: 2026-05-12 13:54 UTC</text>
</svg>