<svg width="500" height="215" viewBox="0 0 500 215" xmlns="http://www.w3.org/2000/svg">
<rect width="500" height="215" fill="#0b1a2a"/>
<text x="5" y="24" font-size="8" fill="#556">24.6</text>
<text x="5" y="190" font-size="8" fill="#556">13.4</text>
<polyline fill="none" stroke="#00ffcc" stroke-width="2" points="20.0,70.1 44.2,123.2 68.4,171.8 92.6,153.6 116.8,70.1 141.1,98.9 165.3,190.0 189.5,158.1 213.7,35.2 237.9,105.0 262.1,170.3 286.3,158.1 310.5,20.0 334.7,73.1 358.9,177.9 383.2,174.8 407.4,147.5 431.6,106.5 455.8,152.1 480.0,149.0"/>
<polyline fill="none" stroke="#ff9944" stroke-width="1" stroke-dasharray="3,2" opacity="0.7" points="20.0,96.7 44.2,121.7 68.4,149.5 92.6,131.8 116.8,107.5 141.1,119.7 165.3,149.0 189.5,127.8 213.7,99.4 237.9,103.5 262.1,144.5 286.3,116.1 310.5,83.7 334.7,90.3 358.9,141.9 383.2,166.7 407.4,142.9 431.6,135.4 455.8,135.9 480.0,150.5"/>
<text x="10" y="13" font-size="9" fill="#aaa">Temp (°C) — last 20 readings</text>
<text x="495" y="13" font-size="7" fill="#445" text-anchor="end">— MA3</text>
<text x="10" y="212" font-size="8" fill="#445">Updated: 2026-05-13 14:06 UTC</text>
</svg>