<svg width="500" height="215" viewBox="0 0 500 215" xmlns="http://www.w3.org/2000/svg">
<rect width="500" height="215" fill="#0b1a2a"/>
<text x="5" y="24" font-size="8" fill="#556">22.4</text>
<text x="5" y="190" font-size="8" fill="#556">10.9</text>
<polyline fill="none" stroke="#00ffcc" stroke-width="2" points="20.0,76.2 44.2,153.0 68.4,190.0 92.6,54.0 116.8,96.9 141.1,154.5 165.3,187.0 189.5,30.3 213.7,74.7 237.9,141.2 262.1,170.8 286.3,20.0 310.5,70.3 334.7,127.9 358.9,127.9 383.2,86.5 407.4,132.3 431.6,150.1 455.8,164.9 480.0,101.3"/>
<polyline fill="none" stroke="#ff9944" stroke-width="1" stroke-dasharray="3,2" opacity="0.7" points="20.0,114.6 44.2,139.7 68.4,132.3 92.6,113.6 116.8,101.8 141.1,146.1 165.3,124.0 189.5,97.4 213.7,82.1 237.9,128.9 262.1,110.7 286.3,87.0 310.5,72.7 334.7,108.7 358.9,114.1 383.2,115.6 407.4,123.0 431.6,149.1 455.8,138.8 480.0,133.1"/>
<text x="10" y="13" font-size="9" fill="#aaa">Temp (°C) — last 20 readings</text>
<text x="495" y="13" font-size="7" fill="#445" text-anchor="end">— MA3</text>
<text x="10" y="212" font-size="8" fill="#445">Updated: 2026-04-26 18:37 UTC</text>
</svg>