<svg width="500" height="215" viewBox="0 0 500 215" xmlns="http://www.w3.org/2000/svg">
<rect width="500" height="215" fill="#0b1a2a"/>
<text x="5" y="24" font-size="8" fill="#556">23.8</text>
<text x="5" y="190" font-size="8" fill="#556">9.7</text>
<polyline fill="none" stroke="#00ffcc" stroke-width="2" points="20.0,156.2 44.2,190.0 68.4,33.3 92.6,98.4 116.8,159.9 141.1,180.4 165.3,20.0 189.5,93.5 213.7,143.0 237.9,162.3 262.1,38.1 286.3,91.1 310.5,137.0 334.7,115.2 358.9,65.8 383.2,77.9 407.4,121.3 431.6,150.2 455.8,98.4 480.0,86.3"/>
<polyline fill="none" stroke="#ff9944" stroke-width="1" stroke-dasharray="3,2" opacity="0.7" points="20.0,173.1 44.2,126.5 68.4,107.2 92.6,97.2 116.8,146.2 141.1,120.1 165.3,98.0 189.5,85.5 213.7,132.9 237.9,114.4 262.1,97.2 286.3,88.7 310.5,114.4 334.7,106.0 358.9,86.3 383.2,88.3 407.4,116.5 431.6,123.3 455.8,111.6 480.0,92.3"/>
<text x="10" y="13" font-size="9" fill="#aaa">Temp (°C) — last 20 readings</text>
<text x="495" y="13" font-size="7" fill="#445" text-anchor="end">— MA3</text>
<text x="10" y="212" font-size="8" fill="#445">Updated: 2026-05-03 01:53 UTC</text>
</svg>