<svg width="500" height="215" viewBox="0 0 500 215" xmlns="http://www.w3.org/2000/svg">
<rect width="500" height="215" fill="#0b1a2a"/>
<text x="5" y="24" font-size="8" fill="#556">24.6</text>
<text x="5" y="190" font-size="8" fill="#556">13.6</text>
<polyline fill="none" stroke="#00ffcc" stroke-width="2" points="20.0,160.6 44.2,20.0 68.4,74.1 92.6,180.7 116.8,177.6 141.1,149.8 165.3,108.1 189.5,154.5 213.7,151.4 237.9,61.7 262.1,123.5 286.3,190.0 310.5,171.5 334.7,95.7 358.9,114.3 383.2,183.8 407.4,157.5 431.6,72.5 455.8,120.5 480.0,154.5"/>
<polyline fill="none" stroke="#ff9944" stroke-width="1" stroke-dasharray="3,2" opacity="0.7" points="20.0,90.3 44.2,84.9 68.4,91.6 92.6,144.2 116.8,169.4 141.1,145.2 165.3,137.5 189.5,138.0 213.7,122.5 237.9,112.2 262.1,125.1 286.3,161.7 310.5,152.4 334.7,127.2 358.9,131.3 383.2,151.9 407.4,138.0 431.6,116.8 455.8,115.8 480.0,137.5"/>
<text x="10" y="13" font-size="9" fill="#aaa">Temp (°C) — last 20 readings</text>
<text x="495" y="13" font-size="7" fill="#445" text-anchor="end">— MA3</text>
<text x="10" y="212" font-size="8" fill="#445">Updated: 2026-05-16 07:49 UTC</text>
</svg>