<svg width="500" height="215" viewBox="0 0 500 215" xmlns="http://www.w3.org/2000/svg">
<rect width="500" height="215" fill="#0b1a2a"/>
<text x="5" y="24" font-size="8" fill="#556">25.2</text>
<text x="5" y="190" font-size="8" fill="#556">11.3</text>
<polyline fill="none" stroke="#00ffcc" stroke-width="2" points="20.0,98.3 44.2,165.5 68.4,175.3 92.6,64.0 116.8,92.2 141.1,155.8 165.3,174.1 189.5,82.4 213.7,76.3 237.9,146.0 262.1,172.9 286.3,21.2 310.5,73.8 334.7,135.0 358.9,155.8 383.2,20.0 407.4,92.2 431.6,158.2 455.8,190.0 480.0,51.8"/>
<polyline fill="none" stroke="#ff9944" stroke-width="1" stroke-dasharray="3,2" opacity="0.7" points="20.0,131.9 44.2,146.4 68.4,135.0 92.6,110.5 116.8,104.0 141.1,140.7 165.3,137.4 189.5,110.9 213.7,101.5 237.9,131.7 262.1,113.4 286.3,89.3 310.5,76.7 334.7,121.5 358.9,103.6 383.2,89.3 407.4,90.1 431.6,146.8 455.8,133.3 480.0,120.9"/>
<text x="10" y="13" font-size="9" fill="#aaa">Temp (°C) — last 20 readings</text>
<text x="495" y="13" font-size="7" fill="#445" text-anchor="end">— MA3</text>
<text x="10" y="212" font-size="8" fill="#445">Updated: 2026-04-20 18:52 UTC</text>
</svg>