<svg width="500" height="215" viewBox="0 0 500 215" xmlns="http://www.w3.org/2000/svg">
<rect width="500" height="215" fill="#0b1a2a"/>
<text x="5" y="24" font-size="8" fill="#556">23.8</text>
<text x="5" y="190" font-size="8" fill="#556">9.7</text>
<polyline fill="none" stroke="#00ffcc" stroke-width="2" points="20.0,124.9 44.2,91.1 68.4,128.5 92.6,143.0 116.8,155.0 141.1,103.2 165.3,116.5 189.5,140.6 213.7,164.7 237.9,71.8 262.1,110.4 286.3,156.2 310.5,190.0 334.7,33.3 358.9,98.4 383.2,159.9 407.4,180.4 431.6,20.0 455.8,93.5 480.0,143.0"/>
<polyline fill="none" stroke="#ff9944" stroke-width="1" stroke-dasharray="3,2" opacity="0.7" points="20.0,108.0 44.2,114.8 68.4,120.9 92.6,142.2 116.8,133.7 141.1,124.9 165.3,120.1 189.5,140.6 213.7,125.7 237.9,115.7 262.1,112.8 286.3,152.2 310.5,126.5 334.7,107.2 358.9,97.2 383.2,146.2 407.4,120.1 431.6,98.0 455.8,85.5 480.0,118.3"/>
<text x="10" y="13" font-size="9" fill="#aaa">Temp (°C) — last 20 readings</text>
<text x="495" y="13" font-size="7" fill="#445" text-anchor="end">— MA3</text>
<text x="10" y="212" font-size="8" fill="#445">Updated: 2026-04-30 08:03 UTC</text>
</svg>