<svg width="500" height="215" viewBox="0 0 500 215" xmlns="http://www.w3.org/2000/svg">
<rect width="500" height="215" fill="#0b1a2a"/>
<text x="5" y="24" font-size="8" fill="#556">25.1</text>
<text x="5" y="190" font-size="8" fill="#556">11.0</text>
<polyline fill="none" stroke="#00ffcc" stroke-width="2" points="20.0,180.4 44.2,89.9 68.4,123.7 92.6,149.0 116.8,175.5 141.1,93.5 165.3,117.7 189.5,173.1 213.7,190.0 237.9,52.6 262.1,104.4 286.3,161.1 310.5,176.7 334.7,20.0 358.9,103.2 383.2,143.0 407.4,132.1 431.6,65.8 455.8,108.0 480.0,146.6"/>
<polyline fill="none" stroke="#ff9944" stroke-width="1" stroke-dasharray="3,2" opacity="0.7" points="20.0,135.1 44.2,131.3 68.4,120.9 92.6,149.4 116.8,139.4 141.1,128.9 165.3,128.1 189.5,160.3 213.7,138.6 237.9,115.7 262.1,106.0 286.3,147.4 310.5,119.3 334.7,100.0 358.9,88.7 383.2,126.1 407.4,113.6 431.6,102.0 455.8,106.8 480.0,127.3"/>
<text x="10" y="13" font-size="9" fill="#aaa">Temp (°C) — last 20 readings</text>
<text x="495" y="13" font-size="7" fill="#445" text-anchor="end">— MA3</text>
<text x="10" y="212" font-size="8" fill="#445">Updated: 2026-05-09 07:43 UTC</text>
</svg>