<svg width="500" height="215" viewBox="0 0 500 215" xmlns="http://www.w3.org/2000/svg">
<rect width="500" height="215" fill="#0b1a2a"/>
<text x="5" y="24" font-size="8" fill="#556">22.3</text>
<text x="5" y="190" font-size="8" fill="#556">11.8</text>
<polyline fill="none" stroke="#00ffcc" stroke-width="2" points="20.0,94.5 44.2,160.9 68.4,186.8 92.6,20.0 116.8,91.2 141.1,152.8 165.3,123.6 189.5,57.2 213.7,73.4 237.9,131.7 262.1,170.6 286.3,101.0 310.5,84.8 334.7,151.1 358.9,154.4 383.2,112.3 407.4,117.1 431.6,180.3 455.8,190.0 480.0,68.6"/>
<polyline fill="none" stroke="#ff9944" stroke-width="1" stroke-dasharray="3,2" opacity="0.7" points="20.0,127.7 44.2,147.4 68.4,122.5 92.6,99.3 116.8,88.0 141.1,122.5 165.3,111.2 189.5,84.8 213.7,87.5 237.9,125.2 262.1,134.4 286.3,118.8 310.5,112.3 334.7,130.1 358.9,139.3 383.2,127.9 407.4,136.6 431.6,162.5 455.8,146.3 480.0,129.3"/>
<text x="10" y="13" font-size="9" fill="#aaa">Temp (°C) — last 20 readings</text>
<text x="495" y="13" font-size="7" fill="#445" text-anchor="end">— MA3</text>
<text x="10" y="212" font-size="8" fill="#445">Updated: 2026-05-04 19:14 UTC</text>
</svg>