<svg width="500" height="215" viewBox="0 0 500 215" xmlns="http://www.w3.org/2000/svg">
<rect width="500" height="215" fill="#0b1a2a"/>
<text x="5" y="24" font-size="8" fill="#556">25.2</text>
<text x="5" y="190" font-size="8" fill="#556">11.3</text>
<polyline fill="none" stroke="#00ffcc" stroke-width="2" points="20.0,64.0 44.2,92.2 68.4,155.8 92.6,174.1 116.8,82.4 141.1,76.3 165.3,146.0 189.5,172.9 213.7,21.2 237.9,73.8 262.1,135.0 286.3,155.8 310.5,20.0 334.7,92.2 358.9,158.2 383.2,190.0 407.4,51.8 431.6,89.7 455.8,158.2 480.0,188.8"/>
<polyline fill="none" stroke="#ff9944" stroke-width="1" stroke-dasharray="3,2" opacity="0.7" points="20.0,78.1 44.2,104.0 68.4,140.7 92.6,137.4 116.8,110.9 141.1,101.5 165.3,131.7 189.5,113.4 213.7,89.3 237.9,76.7 262.1,121.5 286.3,103.6 310.5,89.3 334.7,90.1 358.9,146.8 383.2,133.3 407.4,110.5 431.6,99.9 455.8,145.6 480.0,173.5"/>
<text x="10" y="13" font-size="9" fill="#aaa">Temp (°C) — last 20 readings</text>
<text x="495" y="13" font-size="7" fill="#445" text-anchor="end">— MA3</text>
<text x="10" y="212" font-size="8" fill="#445">Updated: 2026-04-21 13:01 UTC</text>
</svg>