<svg width="500" height="215" viewBox="0 0 500 215" xmlns="http://www.w3.org/2000/svg">
<rect width="500" height="215" fill="#0b1a2a"/>
<text x="5" y="24" font-size="8" fill="#556">25.1</text>
<text x="5" y="190" font-size="8" fill="#556">12.1</text>
<polyline fill="none" stroke="#00ffcc" stroke-width="2" points="20.0,55.3 44.2,111.5 68.4,173.0 92.6,190.0 116.8,20.0 141.1,110.2 165.3,153.4 189.5,141.6 213.7,69.7 237.9,115.5 262.1,157.3 286.3,141.6 310.5,69.7 334.7,94.5 358.9,173.0 383.2,145.5 407.4,39.6 431.6,99.8 455.8,156.0 480.0,145.5"/>
<polyline fill="none" stroke="#ff9944" stroke-width="1" stroke-dasharray="3,2" opacity="0.7" points="20.0,83.4 44.2,113.3 68.4,158.2 92.6,127.7 116.8,106.7 141.1,94.5 165.3,135.1 189.5,121.6 213.7,108.9 237.9,114.2 262.1,138.1 286.3,122.9 310.5,101.9 334.7,112.4 358.9,137.7 383.2,119.4 407.4,95.0 431.6,98.5 455.8,133.8 480.0,150.8"/>
<text x="10" y="13" font-size="9" fill="#aaa">Temp (°C) — last 20 readings</text>
<text x="495" y="13" font-size="7" fill="#445" text-anchor="end">— MA3</text>
<text x="10" y="212" font-size="8" fill="#445">Updated: 2026-05-11 14:29 UTC</text>
</svg>