<svg width="500" height="215" viewBox="0 0 500 215" xmlns="http://www.w3.org/2000/svg">
<rect width="500" height="215" fill="#0b1a2a"/>
<text x="5" y="24" font-size="8" fill="#556">24.6</text>
<text x="5" y="190" font-size="8" fill="#556">13.4</text>
<polyline fill="none" stroke="#00ffcc" stroke-width="2" points="20.0,171.8 44.2,153.6 68.4,70.1 92.6,98.9 116.8,190.0 141.1,158.1 165.3,35.2 189.5,105.0 213.7,170.3 237.9,158.1 262.1,20.0 286.3,73.1 310.5,177.9 334.7,174.8 358.9,147.5 383.2,106.5 407.4,152.1 431.6,149.0 455.8,61.0 480.0,121.7"/>
<polyline fill="none" stroke="#ff9944" stroke-width="1" stroke-dasharray="3,2" opacity="0.7" points="20.0,162.7 44.2,131.8 68.4,107.5 92.6,119.7 116.8,149.0 141.1,127.8 165.3,99.4 189.5,103.5 213.7,144.5 237.9,116.1 262.1,83.7 286.3,90.3 310.5,141.9 334.7,166.7 358.9,142.9 383.2,135.4 407.4,135.9 431.6,120.7 455.8,110.6 480.0,91.3"/>
<text x="10" y="13" font-size="9" fill="#aaa">Temp (°C) — last 20 readings</text>
<text x="495" y="13" font-size="7" fill="#445" text-anchor="end">— MA3</text>
<text x="10" y="212" font-size="8" fill="#445">Updated: 2026-05-14 02:11 UTC</text>
</svg>