<svg width="500" height="215" viewBox="0 0 500 215" xmlns="http://www.w3.org/2000/svg">
<rect width="500" height="215" fill="#0b1a2a"/>
<text x="5" y="24" font-size="8" fill="#556">22.3</text>
<text x="5" y="190" font-size="8" fill="#556">11.8</text>
<polyline fill="none" stroke="#00ffcc" stroke-width="2" points="20.0,186.8 44.2,20.0 68.4,91.2 92.6,152.8 116.8,123.6 141.1,57.2 165.3,73.4 189.5,131.7 213.7,170.6 237.9,101.0 262.1,84.8 286.3,151.1 310.5,154.4 334.7,112.3 358.9,117.1 383.2,180.3 407.4,190.0 431.6,68.6 455.8,113.9 480.0,147.9"/>
<polyline fill="none" stroke="#ff9944" stroke-width="1" stroke-dasharray="3,2" opacity="0.7" points="20.0,103.4 44.2,99.3 68.4,88.0 92.6,122.5 116.8,111.2 141.1,84.8 165.3,87.5 189.5,125.2 213.7,134.4 237.9,118.8 262.1,112.3 286.3,130.1 310.5,139.3 334.7,127.9 358.9,136.6 383.2,162.5 407.4,146.3 431.6,124.2 455.8,110.1 480.0,130.9"/>
<text x="10" y="13" font-size="9" fill="#aaa">Temp (°C) — last 20 readings</text>
<text x="495" y="13" font-size="7" fill="#445" text-anchor="end">— MA3</text>
<text x="10" y="212" font-size="8" fill="#445">Updated: 2026-05-05 07:54 UTC</text>
</svg>