<svg width="500" height="215" viewBox="0 0 500 215" xmlns="http://www.w3.org/2000/svg">
<rect width="500" height="215" fill="#0b1a2a"/>
<text x="5" y="24" font-size="8" fill="#556">25.1</text>
<text x="5" y="190" font-size="8" fill="#556">11.0</text>
<polyline fill="none" stroke="#00ffcc" stroke-width="2" points="20.0,102.0 44.2,151.4 68.4,153.8 92.6,122.5 116.8,126.1 141.1,173.1 165.3,180.4 189.5,89.9 213.7,123.7 237.9,149.0 262.1,175.5 286.3,93.5 310.5,117.7 334.7,173.1 358.9,190.0 383.2,52.6 407.4,104.4 431.6,161.1 455.8,176.7 480.0,20.0"/>
<polyline fill="none" stroke="#ff9944" stroke-width="1" stroke-dasharray="3,2" opacity="0.7" points="20.0,126.7 44.2,135.7 68.4,142.6 92.6,134.1 116.8,140.6 141.1,159.9 165.3,147.8 189.5,131.3 213.7,120.9 237.9,149.4 262.1,139.4 286.3,128.9 310.5,128.1 334.7,160.3 358.9,138.6 383.2,115.7 407.4,106.0 431.6,147.4 455.8,119.3 480.0,98.4"/>
<text x="10" y="13" font-size="9" fill="#aaa">Temp (°C) — last 20 readings</text>
<text x="495" y="13" font-size="7" fill="#445" text-anchor="end">— MA3</text>
<text x="10" y="212" font-size="8" fill="#445">Updated: 2026-05-07 19:25 UTC</text>
</svg>