<svg width="500" height="215" viewBox="0 0 500 215" xmlns="http://www.w3.org/2000/svg">
<rect width="500" height="215" fill="#0b1a2a"/>
<text x="5" y="24" font-size="8" fill="#556">22.4</text>
<text x="5" y="190" font-size="8" fill="#556">11.0</text>
<polyline fill="none" stroke="#00ffcc" stroke-width="2" points="20.0,124.4 44.2,160.2 68.4,96.1 92.6,81.1 116.8,142.3 141.1,145.3 165.3,106.5 189.5,111.0 213.7,169.1 237.9,178.1 262.1,66.2 286.3,108.0 310.5,139.3 334.7,172.1 358.9,70.7 383.2,100.5 407.4,169.1 431.6,190.0 455.8,20.0 480.0,84.1"/>
<polyline fill="none" stroke="#ff9944" stroke-width="1" stroke-dasharray="3,2" opacity="0.7" points="20.0,142.3 44.2,126.9 68.4,112.5 92.6,106.5 116.8,122.9 141.1,131.3 165.3,120.9 189.5,128.9 213.7,152.7 237.9,137.8 262.1,117.4 286.3,104.5 310.5,139.8 334.7,127.4 358.9,114.4 383.2,113.5 407.4,153.2 431.6,126.4 455.8,98.0 480.0,52.1"/>
<text x="10" y="13" font-size="9" fill="#aaa">Temp (°C) — last 20 readings</text>
<text x="495" y="13" font-size="7" fill="#445" text-anchor="end">— MA3</text>
<text x="10" y="212" font-size="8" fill="#445">Updated: 2026-05-07 01:58 UTC</text>
</svg>