<svg width="500" height="215" viewBox="0 0 500 215" xmlns="http://www.w3.org/2000/svg">
<rect width="500" height="215" fill="#0b1a2a"/>
<text x="5" y="24" font-size="8" fill="#556">25.1</text>
<text x="5" y="190" font-size="8" fill="#556">12.1</text>
<polyline fill="none" stroke="#00ffcc" stroke-width="2" points="20.0,190.0 44.2,20.0 68.4,110.2 92.6,153.4 116.8,141.6 141.1,69.7 165.3,115.5 189.5,157.3 213.7,141.6 237.9,69.7 262.1,94.5 286.3,173.0 310.5,145.5 334.7,39.6 358.9,99.8 383.2,156.0 407.4,145.5 431.6,26.5 455.8,72.3 480.0,162.5"/>
<polyline fill="none" stroke="#ff9944" stroke-width="1" stroke-dasharray="3,2" opacity="0.7" points="20.0,105.0 44.2,106.7 68.4,94.5 92.6,135.1 116.8,121.6 141.1,108.9 165.3,114.2 189.5,138.1 213.7,122.9 237.9,101.9 262.1,112.4 286.3,137.7 310.5,119.4 334.7,95.0 358.9,98.5 383.2,133.8 407.4,109.4 431.6,81.5 455.8,87.1 480.0,117.4"/>
<text x="10" y="13" font-size="9" fill="#aaa">Temp (°C) — last 20 readings</text>
<text x="495" y="13" font-size="7" fill="#445" text-anchor="end">— MA3</text>
<text x="10" y="212" font-size="8" fill="#445">Updated: 2026-05-12 08:25 UTC</text>
</svg>