<svg width="500" height="215" viewBox="0 0 500 215" xmlns="http://www.w3.org/2000/svg">
<rect width="500" height="215" fill="#0b1a2a"/>
<text x="5" y="24" font-size="8" fill="#556">25.2</text>
<text x="5" y="190" font-size="8" fill="#556">10.9</text>
<polyline fill="none" stroke="#00ffcc" stroke-width="2" points="20.0,131.7 44.2,152.0 68.4,20.0 92.6,90.1 116.8,154.3 141.1,185.2 165.3,50.9 189.5,87.8 213.7,154.3 237.9,184.1 262.1,85.4 286.3,98.5 310.5,160.3 334.7,190.0 358.9,80.6 383.2,115.1 407.4,161.5 431.6,187.6 455.8,61.6 480.0,97.3"/>
<polyline fill="none" stroke="#ff9944" stroke-width="1" stroke-dasharray="3,2" opacity="0.7" points="20.0,141.9 44.2,101.2 68.4,87.4 92.6,88.2 116.8,143.2 141.1,130.2 165.3,108.0 189.5,97.7 213.7,142.1 237.9,141.3 262.1,122.6 286.3,114.7 310.5,149.6 334.7,143.6 358.9,128.6 383.2,119.1 407.4,154.7 431.6,136.9 455.8,115.5 480.0,79.4"/>
<text x="10" y="13" font-size="9" fill="#aaa">Temp (°C) — last 20 readings</text>
<text x="495" y="13" font-size="7" fill="#445" text-anchor="end">— MA3</text>
<text x="10" y="212" font-size="8" fill="#445">Updated: 2026-04-24 01:45 UTC</text>
</svg>