<svg width="500" height="215" viewBox="0 0 500 215" xmlns="http://www.w3.org/2000/svg">
<rect width="500" height="215" fill="#0b1a2a"/>
<text x="5" y="24" font-size="8" fill="#556">25.1</text>
<text x="5" y="190" font-size="8" fill="#556">12.1</text>
<polyline fill="none" stroke="#00ffcc" stroke-width="2" points="20.0,180.8 44.2,190.0 68.4,39.6 92.6,77.5 116.8,77.5 141.1,102.4 165.3,174.3 189.5,184.8 213.7,65.8 237.9,95.8 262.1,163.8 286.3,183.5 310.5,85.4 334.7,78.8 358.9,153.4 383.2,182.2 407.4,20.0 431.6,76.2 455.8,141.6 480.0,163.8"/>
<polyline fill="none" stroke="#ff9944" stroke-width="1" stroke-dasharray="3,2" opacity="0.7" points="20.0,185.4 44.2,136.8 68.4,102.4 92.6,64.9 116.8,85.8 141.1,118.1 165.3,153.8 189.5,141.6 213.7,115.5 237.9,108.5 262.1,147.7 286.3,144.2 310.5,115.9 334.7,105.9 358.9,138.1 383.2,118.5 407.4,92.8 431.6,79.3 455.8,127.2 480.0,152.7"/>
<text x="10" y="13" font-size="9" fill="#aaa">Temp (°C) — last 20 readings</text>
<text x="495" y="13" font-size="7" fill="#445" text-anchor="end">— MA3</text>
<text x="10" y="212" font-size="8" fill="#445">Updated: 2026-04-19 12:37 UTC</text>
</svg>