<svg width="500" height="215" viewBox="0 0 500 215" xmlns="http://www.w3.org/2000/svg">
<rect width="500" height="215" fill="#0b1a2a"/>
<text x="5" y="24" font-size="8" fill="#556">23.8</text>
<text x="5" y="190" font-size="8" fill="#556">9.7</text>
<polyline fill="none" stroke="#00ffcc" stroke-width="2" points="20.0,164.7 44.2,71.8 68.4,110.4 92.6,156.2 116.8,190.0 141.1,33.3 165.3,98.4 189.5,159.9 213.7,180.4 237.9,20.0 262.1,93.5 286.3,143.0 310.5,162.3 334.7,38.1 358.9,91.1 383.2,137.0 407.4,115.2 431.6,65.8 455.8,77.9 480.0,121.3"/>
<polyline fill="none" stroke="#ff9944" stroke-width="1" stroke-dasharray="3,2" opacity="0.7" points="20.0,118.3 44.2,115.7 68.4,112.8 92.6,152.2 116.8,126.5 141.1,107.2 165.3,97.2 189.5,146.2 213.7,120.1 237.9,98.0 262.1,85.5 286.3,132.9 310.5,114.4 334.7,97.2 358.9,88.7 383.2,114.4 407.4,106.0 431.6,86.3 455.8,88.3 480.0,99.6"/>
<text x="10" y="13" font-size="9" fill="#aaa">Temp (°C) — last 20 readings</text>
<text x="495" y="13" font-size="7" fill="#445" text-anchor="end">— MA3</text>
<text x="10" y="212" font-size="8" fill="#445">Updated: 2026-05-02 07:19 UTC</text>
</svg>