<svg width="500" height="215" viewBox="0 0 500 215" xmlns="http://www.w3.org/2000/svg">
<rect width="500" height="215" fill="#0b1a2a"/>
<text x="5" y="24" font-size="8" fill="#556">22.7</text>
<text x="5" y="190" font-size="8" fill="#556">9.7</text>
<polyline fill="none" stroke="#00ffcc" stroke-width="2" points="20.0,131.2 44.2,157.3 68.4,23.9 92.6,68.4 116.8,119.4 141.1,119.4 165.3,82.8 189.5,123.3 213.7,139.0 237.9,152.1 262.1,95.8 286.3,110.2 310.5,136.4 334.7,162.5 358.9,61.8 383.2,103.7 407.4,153.4 431.6,190.0 455.8,20.0 480.0,90.6"/>
<polyline fill="none" stroke="#ff9944" stroke-width="1" stroke-dasharray="3,2" opacity="0.7" points="20.0,144.2 44.2,104.1 68.4,83.2 92.6,70.6 116.8,102.4 141.1,107.2 165.3,108.5 189.5,115.0 213.7,138.1 237.9,129.0 262.1,119.4 286.3,114.2 310.5,136.4 334.7,120.3 358.9,109.4 383.2,106.3 407.4,149.0 431.6,121.1 455.8,100.2 480.0,55.3"/>
<text x="10" y="13" font-size="9" fill="#aaa">Temp (°C) — last 20 readings</text>
<text x="495" y="13" font-size="7" fill="#445" text-anchor="end">— MA3</text>
<text x="10" y="212" font-size="8" fill="#445">Updated: 2026-04-29 02:01 UTC</text>
</svg>