<svg width="500" height="215" viewBox="0 0 500 215" xmlns="http://www.w3.org/2000/svg">
<rect width="500" height="215" fill="#0b1a2a"/>
<text x="5" y="24" font-size="8" fill="#556">23.8</text>
<text x="5" y="190" font-size="8" fill="#556">9.7</text>
<polyline fill="none" stroke="#00ffcc" stroke-width="2" points="20.0,77.9 44.2,124.9 68.4,124.9 92.6,91.1 116.8,128.5 141.1,143.0 165.3,155.0 189.5,103.2 213.7,116.5 237.9,140.6 262.1,164.7 286.3,71.8 310.5,110.4 334.7,156.2 358.9,190.0 383.2,33.3 407.4,98.4 431.6,159.9 455.8,180.4 480.0,20.0"/>
<polyline fill="none" stroke="#ff9944" stroke-width="1" stroke-dasharray="3,2" opacity="0.7" points="20.0,101.4 44.2,109.2 68.4,113.6 92.6,114.8 116.8,120.9 141.1,142.2 165.3,133.7 189.5,124.9 213.7,120.1 237.9,140.6 262.1,125.7 286.3,115.7 310.5,112.8 334.7,152.2 358.9,126.5 383.2,107.2 407.4,97.2 431.6,146.2 455.8,120.1 480.0,100.2"/>
<text x="10" y="13" font-size="9" fill="#aaa">Temp (°C) — last 20 readings</text>
<text x="495" y="13" font-size="7" fill="#445" text-anchor="end">— MA3</text>
<text x="10" y="212" font-size="8" fill="#445">Updated: 2026-04-29 19:08 UTC</text>
</svg>