<svg width="500" height="215" viewBox="0 0 500 215" xmlns="http://www.w3.org/2000/svg">
<rect width="500" height="215" fill="#0b1a2a"/>
<text x="5" y="24" font-size="8" fill="#556">23.8</text>
<text x="5" y="190" font-size="8" fill="#556">9.7</text>
<polyline fill="none" stroke="#00ffcc" stroke-width="2" points="20.0,116.5 44.2,140.6 68.4,164.7 92.6,71.8 116.8,110.4 141.1,156.2 165.3,190.0 189.5,33.3 213.7,98.4 237.9,159.9 262.1,180.4 286.3,20.0 310.5,93.5 334.7,143.0 358.9,162.3 383.2,38.1 407.4,91.1 431.6,137.0 455.8,115.2 480.0,65.8"/>
<polyline fill="none" stroke="#ff9944" stroke-width="1" stroke-dasharray="3,2" opacity="0.7" points="20.0,128.5 44.2,140.6 68.4,125.7 92.6,115.7 116.8,112.8 141.1,152.2 165.3,126.5 189.5,107.2 213.7,97.2 237.9,146.2 262.1,120.1 286.3,98.0 310.5,85.5 334.7,132.9 358.9,114.4 383.2,97.2 407.4,88.7 431.6,114.4 455.8,106.0 480.0,90.5"/>
<text x="10" y="13" font-size="9" fill="#aaa">Temp (°C) — last 20 readings</text>
<text x="495" y="13" font-size="7" fill="#445" text-anchor="end">— MA3</text>
<text x="10" y="212" font-size="8" fill="#445">Updated: 2026-05-01 18:57 UTC</text>
</svg>