<svg width="500" height="215" viewBox="0 0 500 215" xmlns="http://www.w3.org/2000/svg">
<rect width="500" height="215" fill="#0b1a2a"/>
<text x="5" y="24" font-size="8" fill="#556">22.6</text>
<text x="5" y="190" font-size="8" fill="#556">10.9</text>
<polyline fill="none" stroke="#00ffcc" stroke-width="2" points="20.0,146.4 44.2,184.2 68.4,20.0 92.6,65.0 116.8,146.4 141.1,182.7 165.3,62.1 189.5,78.1 213.7,153.7 237.9,190.0 262.1,56.3 286.3,98.5 310.5,155.1 334.7,187.1 358.9,33.1 383.2,76.7 407.4,142.1 431.6,171.1 455.8,22.9 480.0,72.3"/>
<polyline fill="none" stroke="#ff9944" stroke-width="1" stroke-dasharray="3,2" opacity="0.7" points="20.0,165.3 44.2,116.9 68.4,89.7 92.6,77.2 116.8,131.4 141.1,130.4 165.3,107.7 189.5,98.0 213.7,140.6 237.9,133.3 262.1,114.9 286.3,103.3 310.5,146.9 334.7,125.1 358.9,98.9 383.2,83.9 407.4,129.9 431.6,112.0 455.8,88.8 480.0,47.6"/>
<text x="10" y="13" font-size="9" fill="#aaa">Temp (°C) — last 20 readings</text>
<text x="495" y="13" font-size="7" fill="#445" text-anchor="end">— MA3</text>
<text x="10" y="212" font-size="8" fill="#445">Updated: 2026-04-25 01:25 UTC</text>
</svg>