<svg width="500" height="215" viewBox="0 0 500 215" xmlns="http://www.w3.org/2000/svg">
<rect width="500" height="215" fill="#0b1a2a"/>
<text x="5" y="24" font-size="8" fill="#556">25.2</text>
<text x="5" y="190" font-size="8" fill="#556">10.9</text>
<polyline fill="none" stroke="#00ffcc" stroke-width="2" points="20.0,74.7 44.2,142.4 68.4,168.6 92.6,21.2 116.8,72.3 141.1,131.7 165.3,152.0 189.5,20.0 213.7,90.1 237.9,154.3 262.1,185.2 286.3,50.9 310.5,87.8 334.7,154.3 358.9,184.1 383.2,85.4 407.4,98.5 431.6,160.3 455.8,190.0 480.0,80.6"/>
<polyline fill="none" stroke="#ff9944" stroke-width="1" stroke-dasharray="3,2" opacity="0.7" points="20.0,108.6 44.2,128.6 68.4,110.7 92.6,87.4 116.8,75.1 141.1,118.7 165.3,101.2 189.5,87.4 213.7,88.2 237.9,143.2 262.1,130.2 286.3,108.0 310.5,97.7 334.7,142.1 358.9,141.3 383.2,122.6 407.4,114.7 431.6,149.6 455.8,143.6 480.0,135.3"/>
<text x="10" y="13" font-size="9" fill="#aaa">Temp (°C) — last 20 readings</text>
<text x="495" y="13" font-size="7" fill="#445" text-anchor="end">— MA3</text>
<text x="10" y="212" font-size="8" fill="#445">Updated: 2026-04-22 18:59 UTC</text>
</svg>