<svg width="500" height="215" viewBox="0 0 500 215" xmlns="http://www.w3.org/2000/svg">
<rect width="500" height="215" fill="#0b1a2a"/>
<text x="5" y="24" font-size="8" fill="#556">23.8</text>
<text x="5" y="190" font-size="8" fill="#556">9.7</text>
<polyline fill="none" stroke="#00ffcc" stroke-width="2" points="20.0,71.8 44.2,110.4 68.4,156.2 92.6,190.0 116.8,33.3 141.1,98.4 165.3,159.9 189.5,180.4 213.7,20.0 237.9,93.5 262.1,143.0 286.3,162.3 310.5,38.1 334.7,91.1 358.9,137.0 383.2,115.2 407.4,65.8 431.6,77.9 455.8,121.3 480.0,150.2"/>
<polyline fill="none" stroke="#ff9944" stroke-width="1" stroke-dasharray="3,2" opacity="0.7" points="20.0,91.1 44.2,112.8 68.4,152.2 92.6,126.5 116.8,107.2 141.1,97.2 165.3,146.2 189.5,120.1 213.7,98.0 237.9,85.5 262.1,132.9 286.3,114.4 310.5,97.2 334.7,88.7 358.9,114.4 383.2,106.0 407.4,86.3 431.6,88.3 455.8,116.5 480.0,135.7"/>
<text x="10" y="13" font-size="9" fill="#aaa">Temp (°C) — last 20 readings</text>
<text x="495" y="13" font-size="7" fill="#445" text-anchor="end">— MA3</text>
<text x="10" y="212" font-size="8" fill="#445">Updated: 2026-05-02 12:45 UTC</text>
</svg>