<svg width="500" height="215" viewBox="0 0 500 215" xmlns="http://www.w3.org/2000/svg">
<rect width="500" height="215" fill="#0b1a2a"/>
<text x="5" y="24" font-size="8" fill="#556">25.1</text>
<text x="5" y="190" font-size="8" fill="#556">11.0</text>
<polyline fill="none" stroke="#00ffcc" stroke-width="2" points="20.0,153.8 44.2,122.5 68.4,126.1 92.6,173.1 116.8,180.4 141.1,89.9 165.3,123.7 189.5,149.0 213.7,175.5 237.9,93.5 262.1,117.7 286.3,173.1 310.5,190.0 334.7,52.6 358.9,104.4 383.2,161.1 407.4,176.7 431.6,20.0 455.8,103.2 480.0,143.0"/>
<polyline fill="none" stroke="#ff9944" stroke-width="1" stroke-dasharray="3,2" opacity="0.7" points="20.0,138.2 44.2,134.1 68.4,140.6 92.6,159.9 116.8,147.8 141.1,131.3 165.3,120.9 189.5,149.4 213.7,139.4 237.9,128.9 262.1,128.1 286.3,160.3 310.5,138.6 334.7,115.7 358.9,106.0 383.2,147.4 407.4,119.3 431.6,100.0 455.8,88.7 480.0,123.1"/>
<text x="10" y="13" font-size="9" fill="#aaa">Temp (°C) — last 20 readings</text>
<text x="495" y="13" font-size="7" fill="#445" text-anchor="end">— MA3</text>
<text x="10" y="212" font-size="8" fill="#445">Updated: 2026-05-08 07:15 UTC</text>
</svg>