<svg width="500" height="215" viewBox="0 0 500 215" xmlns="http://www.w3.org/2000/svg">
<rect width="500" height="215" fill="#0b1a2a"/>
<text x="5" y="24" font-size="8" fill="#556">23.8</text>
<text x="5" y="190" font-size="8" fill="#556">10.5</text>
<polyline fill="none" stroke="#00ffcc" stroke-width="2" points="20.0,190.0 44.2,20.0 68.4,98.0 92.6,150.4 116.8,170.8 141.1,39.2 165.3,95.4 189.5,144.0 213.7,121.0 237.9,68.6 262.1,81.4 286.3,127.4 310.5,158.0 334.7,103.1 358.9,90.3 383.2,142.7 407.4,145.3 431.6,112.0 455.8,115.9 480.0,165.7"/>
<polyline fill="none" stroke="#ff9944" stroke-width="1" stroke-dasharray="3,2" opacity="0.7" points="20.0,105.0 44.2,102.7 68.4,89.4 92.6,139.7 116.8,120.1 141.1,101.8 165.3,92.9 189.5,120.1 213.7,111.2 237.9,90.3 262.1,92.4 286.3,122.3 310.5,129.5 334.7,117.1 358.9,112.0 383.2,126.1 407.4,133.3 431.6,124.4 455.8,131.2 480.0,140.8"/>
<text x="10" y="13" font-size="9" fill="#aaa">Temp (°C) — last 20 readings</text>
<text x="495" y="13" font-size="7" fill="#445" text-anchor="end">— MA3</text>
<text x="10" y="212" font-size="8" fill="#445">Updated: 2026-05-04 08:16 UTC</text>
</svg>