<svg width="500" height="215" viewBox="0 0 500 215" xmlns="http://www.w3.org/2000/svg">
<rect width="500" height="215" fill="#0b1a2a"/>
<text x="5" y="24" font-size="8" fill="#556">25.2</text>
<text x="5" y="190" font-size="8" fill="#556">10.9</text>
<polyline fill="none" stroke="#00ffcc" stroke-width="2" points="20.0,21.2 44.2,72.3 68.4,131.7 92.6,152.0 116.8,20.0 141.1,90.1 165.3,154.3 189.5,185.2 213.7,50.9 237.9,87.8 262.1,154.3 286.3,184.1 310.5,85.4 334.7,98.5 358.9,160.3 383.2,190.0 407.4,80.6 431.6,115.1 455.8,161.5 480.0,187.6"/>
<polyline fill="none" stroke="#ff9944" stroke-width="1" stroke-dasharray="3,2" opacity="0.7" points="20.0,46.7 44.2,75.1 68.4,118.7 92.6,101.2 116.8,87.4 141.1,88.2 165.3,143.2 189.5,130.2 213.7,108.0 237.9,97.7 262.1,142.1 286.3,141.3 310.5,122.6 334.7,114.7 358.9,149.6 383.2,143.6 407.4,128.6 431.6,119.1 455.8,154.7 480.0,174.5"/>
<text x="10" y="13" font-size="9" fill="#aaa">Temp (°C) — last 20 readings</text>
<text x="495" y="13" font-size="7" fill="#445" text-anchor="end">— MA3</text>
<text x="10" y="212" font-size="8" fill="#445">Updated: 2026-04-23 13:01 UTC</text>
</svg>