<svg width="500" height="215" viewBox="0 0 500 215" xmlns="http://www.w3.org/2000/svg">
<rect width="500" height="215" fill="#0b1a2a"/>
<text x="5" y="24" font-size="8" fill="#556">25.2</text>
<text x="5" y="190" font-size="8" fill="#556">10.9</text>
<polyline fill="none" stroke="#00ffcc" stroke-width="2" points="20.0,142.4 44.2,168.6 68.4,21.2 92.6,72.3 116.8,131.7 141.1,152.0 165.3,20.0 189.5,90.1 213.7,154.3 237.9,185.2 262.1,50.9 286.3,87.8 310.5,154.3 334.7,184.1 358.9,85.4 383.2,98.5 407.4,160.3 431.6,190.0 455.8,80.6 480.0,115.1"/>
<polyline fill="none" stroke="#ff9944" stroke-width="1" stroke-dasharray="3,2" opacity="0.7" points="20.0,155.5 44.2,110.7 68.4,87.4 92.6,75.1 116.8,118.7 141.1,101.2 165.3,87.4 189.5,88.2 213.7,143.2 237.9,130.2 262.1,108.0 286.3,97.7 310.5,142.1 334.7,141.3 358.9,122.6 383.2,114.7 407.4,149.6 431.6,143.6 455.8,128.6 480.0,97.9"/>
<text x="10" y="13" font-size="9" fill="#aaa">Temp (°C) — last 20 readings</text>
<text x="495" y="13" font-size="7" fill="#445" text-anchor="end">— MA3</text>
<text x="10" y="212" font-size="8" fill="#445">Updated: 2026-04-23 01:46 UTC</text>
</svg>