<svg width="500" height="215" viewBox="0 0 500 215" xmlns="http://www.w3.org/2000/svg">
<rect width="500" height="215" fill="#0b1a2a"/>
<text x="5" y="24" font-size="8" fill="#556">22.4</text>
<text x="5" y="190" font-size="8" fill="#556">10.9</text>
<polyline fill="none" stroke="#00ffcc" stroke-width="2" points="20.0,153.0 44.2,190.0 68.4,54.0 92.6,96.9 116.8,154.5 141.1,187.0 165.3,30.3 189.5,74.7 213.7,141.2 237.9,170.8 262.1,20.0 286.3,70.3 310.5,127.9 334.7,127.9 358.9,86.5 383.2,132.3 407.4,150.1 431.6,164.9 455.8,101.3 480.0,117.6"/>
<polyline fill="none" stroke="#ff9944" stroke-width="1" stroke-dasharray="3,2" opacity="0.7" points="20.0,171.5 44.2,132.3 68.4,113.6 92.6,101.8 116.8,146.1 141.1,124.0 165.3,97.4 189.5,82.1 213.7,128.9 237.9,110.7 262.1,87.0 286.3,72.7 310.5,108.7 334.7,114.1 358.9,115.6 383.2,123.0 407.4,149.1 431.6,138.8 455.8,127.9 480.0,109.4"/>
<text x="10" y="13" font-size="9" fill="#aaa">Temp (°C) — last 20 readings</text>
<text x="495" y="13" font-size="7" fill="#445" text-anchor="end">— MA3</text>
<text x="10" y="212" font-size="8" fill="#445">Updated: 2026-04-27 01:51 UTC</text>
</svg>