<svg width="500" height="215" viewBox="0 0 500 215" xmlns="http://www.w3.org/2000/svg">
<rect width="500" height="215" fill="#0b1a2a"/>
<text x="5" y="24" font-size="8" fill="#556">22.0</text>
<text x="5" y="190" font-size="8" fill="#556">13.6</text>
<polyline fill="none" stroke="#00ffcc" stroke-width="2" points="20.0,82.7 44.2,143.5 68.4,139.4 92.6,22.0 116.8,103.0 141.1,190.0 165.3,165.7 189.5,66.5 213.7,90.8 237.9,181.9 262.1,147.5 286.3,36.2 310.5,98.9 334.7,143.5 358.9,143.5 383.2,20.0 407.4,82.7 431.6,133.3 455.8,137.4 480.0,40.2"/>
<polyline fill="none" stroke="#ff9944" stroke-width="1" stroke-dasharray="3,2" opacity="0.7" points="20.0,113.1 44.2,121.9 68.4,101.6 92.6,88.1 116.8,105.0 141.1,152.9 165.3,140.8 189.5,107.7 213.7,113.1 237.9,140.1 262.1,121.9 286.3,94.2 310.5,92.9 334.7,128.6 358.9,102.3 383.2,82.1 407.4,78.7 431.6,117.8 455.8,103.7 480.0,88.8"/>
<text x="10" y="13" font-size="9" fill="#aaa">Temp (°C) — last 20 readings</text>
<text x="495" y="13" font-size="7" fill="#445" text-anchor="end">— MA3</text>
<text x="10" y="212" font-size="8" fill="#445">Updated: 2026-05-17 18:53 UTC</text>
</svg>