<svg width="500" height="215" viewBox="0 0 500 215" xmlns="http://www.w3.org/2000/svg">
<rect width="500" height="215" fill="#0b1a2a"/>
<text x="5" y="24" font-size="8" fill="#556">24.6</text>
<text x="5" y="190" font-size="8" fill="#556">13.4</text>
<polyline fill="none" stroke="#00ffcc" stroke-width="2" points="20.0,117.1 44.2,167.2 68.4,153.6 92.6,70.1 116.8,123.2 141.1,171.8 165.3,153.6 189.5,70.1 213.7,98.9 237.9,190.0 262.1,158.1 286.3,35.2 310.5,105.0 334.7,170.3 358.9,158.1 383.2,20.0 407.4,73.1 431.6,177.9 455.8,174.8 480.0,147.5"/>
<polyline fill="none" stroke="#ff9944" stroke-width="1" stroke-dasharray="3,2" opacity="0.7" points="20.0,142.2 44.2,146.0 68.4,130.3 92.6,115.6 116.8,121.7 141.1,149.5 165.3,131.8 189.5,107.5 213.7,119.7 237.9,149.0 262.1,127.8 286.3,99.4 310.5,103.5 334.7,144.5 358.9,116.1 383.2,83.7 407.4,90.3 431.6,141.9 455.8,166.7 480.0,161.2"/>
<text x="10" y="13" font-size="9" fill="#aaa">Temp (°C) — last 20 readings</text>
<text x="495" y="13" font-size="7" fill="#445" text-anchor="end">— MA3</text>
<text x="10" y="212" font-size="8" fill="#445">Updated: 2026-05-12 19:27 UTC</text>
</svg>