<svg width="500" height="215" viewBox="0 0 500 215" xmlns="http://www.w3.org/2000/svg">
<rect width="500" height="215" fill="#0b1a2a"/>
<text x="5" y="24" font-size="8" fill="#556">25.1</text>
<text x="5" y="190" font-size="8" fill="#556">11.0</text>
<polyline fill="none" stroke="#00ffcc" stroke-width="2" points="20.0,175.5 44.2,93.5 68.4,117.7 92.6,173.1 116.8,190.0 141.1,52.6 165.3,104.4 189.5,161.1 213.7,176.7 237.9,20.0 262.1,103.2 286.3,143.0 310.5,132.1 334.7,65.8 358.9,108.0 383.2,146.6 407.4,132.1 431.6,65.8 455.8,88.7 480.0,161.1"/>
<polyline fill="none" stroke="#ff9944" stroke-width="1" stroke-dasharray="3,2" opacity="0.7" points="20.0,134.5 44.2,128.9 68.4,128.1 92.6,160.3 116.8,138.6 141.1,115.7 165.3,106.0 189.5,147.4 213.7,119.3 237.9,100.0 262.1,88.7 286.3,126.1 310.5,113.6 334.7,102.0 358.9,106.8 383.2,128.9 407.4,114.8 431.6,95.6 455.8,105.2 480.0,124.9"/>
<text x="10" y="13" font-size="9" fill="#aaa">Temp (°C) — last 20 readings</text>
<text x="495" y="13" font-size="7" fill="#445" text-anchor="end">— MA3</text>
<text x="10" y="212" font-size="8" fill="#445">Updated: 2026-05-10 07:56 UTC</text>
</svg>