<svg width="500" height="215" viewBox="0 0 500 215" xmlns="http://www.w3.org/2000/svg">
<rect width="500" height="215" fill="#0b1a2a"/>
<text x="5" y="24" font-size="8" fill="#556">22.4</text>
<text x="5" y="190" font-size="8" fill="#556">11.1</text>
<polyline fill="none" stroke="#00ffcc" stroke-width="2" points="20.0,98.2 44.2,156.9 68.4,190.0 92.6,30.5 116.8,75.7 141.1,143.4 165.3,173.5 189.5,20.0 213.7,71.2 237.9,129.8 262.1,129.8 286.3,87.7 310.5,134.3 334.7,152.4 358.9,167.4 383.2,102.7 407.4,119.3 431.6,149.4 455.8,179.5 480.0,63.6"/>
<polyline fill="none" stroke="#ff9944" stroke-width="1" stroke-dasharray="3,2" opacity="0.7" points="20.0,127.6 44.2,148.4 68.4,125.8 92.6,98.7 116.8,83.2 141.1,130.8 165.3,112.3 189.5,88.2 213.7,73.7 237.9,110.3 262.1,115.8 286.3,117.3 310.5,124.8 334.7,151.4 358.9,140.9 383.2,129.8 407.4,123.8 431.6,149.4 455.8,130.8 480.0,121.5"/>
<text x="10" y="13" font-size="9" fill="#aaa">Temp (°C) — last 20 readings</text>
<text x="495" y="13" font-size="7" fill="#445" text-anchor="end">— MA3</text>
<text x="10" y="212" font-size="8" fill="#445">Updated: 2026-04-27 19:04 UTC</text>
</svg>