<svg width="500" height="215" viewBox="0 0 500 215" xmlns="http://www.w3.org/2000/svg">
<rect width="500" height="215" fill="#0b1a2a"/>
<text x="5" y="24" font-size="8" fill="#556">22.4</text>
<text x="5" y="190" font-size="8" fill="#556">11.0</text>
<polyline fill="none" stroke="#00ffcc" stroke-width="2" points="20.0,160.2 44.2,96.1 68.4,81.1 92.6,142.3 116.8,145.3 141.1,106.5 165.3,111.0 189.5,169.1 213.7,178.1 237.9,66.2 262.1,108.0 286.3,139.3 310.5,172.1 334.7,70.7 358.9,100.5 383.2,169.1 407.4,190.0 431.6,20.0 455.8,84.1 480.0,154.2"/>
<polyline fill="none" stroke="#ff9944" stroke-width="1" stroke-dasharray="3,2" opacity="0.7" points="20.0,128.1 44.2,112.5 68.4,106.5 92.6,122.9 116.8,131.3 141.1,120.9 165.3,128.9 189.5,152.7 213.7,137.8 237.9,117.4 262.1,104.5 286.3,139.8 310.5,127.4 334.7,114.4 358.9,113.5 383.2,153.2 407.4,126.4 431.6,98.0 455.8,86.1 480.0,119.2"/>
<text x="10" y="13" font-size="9" fill="#aaa">Temp (°C) — last 20 readings</text>
<text x="495" y="13" font-size="7" fill="#445" text-anchor="end">— MA3</text>
<text x="10" y="212" font-size="8" fill="#445">Updated: 2026-05-07 08:14 UTC</text>
</svg>