<svg width="500" height="215" viewBox="0 0 500 215" xmlns="http://www.w3.org/2000/svg">
<rect width="500" height="215" fill="#0b1a2a"/>
<text x="5" y="24" font-size="8" fill="#556">22.4</text>
<text x="5" y="190" font-size="8" fill="#556">10.9</text>
<polyline fill="none" stroke="#00ffcc" stroke-width="2" points="20.0,59.9 44.2,76.2 68.4,153.0 92.6,190.0 116.8,54.0 141.1,96.9 165.3,154.5 189.5,187.0 213.7,30.3 237.9,74.7 262.1,141.2 286.3,170.8 310.5,20.0 334.7,70.3 358.9,127.9 383.2,127.9 407.4,86.5 431.6,132.3 455.8,150.1 480.0,164.9"/>
<polyline fill="none" stroke="#ff9944" stroke-width="1" stroke-dasharray="3,2" opacity="0.7" points="20.0,68.0 44.2,96.4 68.4,139.7 92.6,132.3 116.8,113.6 141.1,101.8 165.3,146.1 189.5,124.0 213.7,97.4 237.9,82.1 262.1,128.9 286.3,110.7 310.5,87.0 334.7,72.7 358.9,108.7 383.2,114.1 407.4,115.6 431.6,123.0 455.8,149.1 480.0,157.5"/>
<text x="10" y="13" font-size="9" fill="#aaa">Temp (°C) — last 20 readings</text>
<text x="495" y="13" font-size="7" fill="#445" text-anchor="end">— MA3</text>
<text x="10" y="212" font-size="8" fill="#445">Updated: 2026-04-26 12:42 UTC</text>
</svg>