<svg width="500" height="215" viewBox="0 0 500 215" xmlns="http://www.w3.org/2000/svg">
<rect width="500" height="215" fill="#0b1a2a"/>
<text x="5" y="24" font-size="8" fill="#556">25.2</text>
<text x="5" y="190" font-size="8" fill="#556">11.3</text>
<polyline fill="none" stroke="#00ffcc" stroke-width="2" points="20.0,174.1 44.2,82.4 68.4,76.3 92.6,146.0 116.8,172.9 141.1,21.2 165.3,73.8 189.5,135.0 213.7,155.8 237.9,20.0 262.1,92.2 286.3,158.2 310.5,190.0 334.7,51.8 358.9,89.7 383.2,158.2 407.4,188.8 431.6,87.3 455.8,100.7 480.0,164.3"/>
<polyline fill="none" stroke="#ff9944" stroke-width="1" stroke-dasharray="3,2" opacity="0.7" points="20.0,128.2 44.2,110.9 68.4,101.5 92.6,131.7 116.8,113.4 141.1,89.3 165.3,76.7 189.5,121.5 213.7,103.6 237.9,89.3 262.1,90.1 286.3,146.8 310.5,133.3 334.7,110.5 358.9,99.9 383.2,145.6 407.4,144.7 431.6,125.6 455.8,117.4 480.0,132.5"/>
<text x="10" y="13" font-size="9" fill="#aaa">Temp (°C) — last 20 readings</text>
<text x="495" y="13" font-size="7" fill="#445" text-anchor="end">— MA3</text>
<text x="10" y="212" font-size="8" fill="#445">Updated: 2026-04-22 07:20 UTC</text>
</svg>