<svg width="500" height="215" viewBox="0 0 500 215" xmlns="http://www.w3.org/2000/svg">
<rect width="500" height="215" fill="#0b1a2a"/>
<text x="5" y="24" font-size="8" fill="#556">22.3</text>
<text x="5" y="190" font-size="8" fill="#556">11.8</text>
<polyline fill="none" stroke="#00ffcc" stroke-width="2" points="20.0,20.0 44.2,91.2 68.4,152.8 92.6,123.6 116.8,57.2 141.1,73.4 165.3,131.7 189.5,170.6 213.7,101.0 237.9,84.8 262.1,151.1 286.3,154.4 310.5,112.3 334.7,117.1 358.9,180.3 383.2,190.0 407.4,68.6 431.6,113.9 455.8,147.9 480.0,183.5"/>
<polyline fill="none" stroke="#ff9944" stroke-width="1" stroke-dasharray="3,2" opacity="0.7" points="20.0,55.6 44.2,88.0 68.4,122.5 92.6,111.2 116.8,84.8 141.1,87.5 165.3,125.2 189.5,134.4 213.7,118.8 237.9,112.3 262.1,130.1 286.3,139.3 310.5,127.9 334.7,136.6 358.9,162.5 383.2,146.3 407.4,124.2 431.6,110.1 455.8,148.4 480.0,165.7"/>
<text x="10" y="13" font-size="9" fill="#aaa">Temp (°C) — last 20 readings</text>
<text x="495" y="13" font-size="7" fill="#445" text-anchor="end">— MA3</text>
<text x="10" y="212" font-size="8" fill="#445">Updated: 2026-05-05 13:12 UTC</text>
</svg>