<svg width="500" height="215" viewBox="0 0 500 215" xmlns="http://www.w3.org/2000/svg">
<rect width="500" height="215" fill="#0b1a2a"/>
<text x="5" y="24" font-size="8" fill="#556">22.4</text>
<text x="5" y="190" font-size="8" fill="#556">10.9</text>
<polyline fill="none" stroke="#00ffcc" stroke-width="2" points="20.0,62.9 44.2,145.7 68.4,182.6 92.6,59.9 116.8,76.2 141.1,153.0 165.3,190.0 189.5,54.0 213.7,96.9 237.9,154.5 262.1,187.0 286.3,30.3 310.5,74.7 334.7,141.2 358.9,170.8 383.2,20.0 407.4,70.3 431.6,127.9 455.8,127.9 480.0,86.5"/>
<polyline fill="none" stroke="#ff9944" stroke-width="1" stroke-dasharray="3,2" opacity="0.7" points="20.0,104.3 44.2,130.4 68.4,129.4 92.6,106.2 116.8,96.4 141.1,139.7 165.3,132.3 189.5,113.6 213.7,101.8 237.9,146.1 262.1,124.0 286.3,97.4 310.5,82.1 334.7,128.9 358.9,110.7 383.2,87.0 407.4,72.7 431.6,108.7 455.8,114.1 480.0,107.2"/>
<text x="10" y="13" font-size="9" fill="#aaa">Temp (°C) — last 20 readings</text>
<text x="495" y="13" font-size="7" fill="#445" text-anchor="end">— MA3</text>
<text x="10" y="212" font-size="8" fill="#445">Updated: 2026-04-25 18:36 UTC</text>
</svg>