<svg width="500" height="215" viewBox="0 0 500 215" xmlns="http://www.w3.org/2000/svg">
<rect width="500" height="215" fill="#0b1a2a"/>
<text x="5" y="24" font-size="8" fill="#556">22.6</text>
<text x="5" y="190" font-size="8" fill="#556">10.9</text>
<polyline fill="none" stroke="#00ffcc" stroke-width="2" points="20.0,67.9 44.2,146.4 68.4,184.2 92.6,20.0 116.8,65.0 141.1,146.4 165.3,182.7 189.5,62.1 213.7,78.1 237.9,153.7 262.1,190.0 286.3,56.3 310.5,98.5 334.7,155.1 358.9,187.1 383.2,33.1 407.4,76.7 431.6,142.1 455.8,171.1 480.0,22.9"/>
<polyline fill="none" stroke="#ff9944" stroke-width="1" stroke-dasharray="3,2" opacity="0.7" points="20.0,107.2 44.2,132.8 68.4,116.9 92.6,89.7 116.8,77.2 141.1,131.4 165.3,130.4 189.5,107.7 213.7,98.0 237.9,140.6 262.1,133.3 286.3,114.9 310.5,103.3 334.7,146.9 358.9,125.1 383.2,98.9 407.4,83.9 431.6,129.9 455.8,112.0 480.0,97.0"/>
<text x="10" y="13" font-size="9" fill="#aaa">Temp (°C) — last 20 readings</text>
<text x="495" y="13" font-size="7" fill="#445" text-anchor="end">— MA3</text>
<text x="10" y="212" font-size="8" fill="#445">Updated: 2026-04-24 18:37 UTC</text>
</svg>