<svg width="500" height="215" viewBox="0 0 500 215" xmlns="http://www.w3.org/2000/svg">
<rect width="500" height="215" fill="#0b1a2a"/>
<text x="5" y="24" font-size="8" fill="#556">22.0</text>
<text x="5" y="190" font-size="8" fill="#556">13.6</text>
<polyline fill="none" stroke="#00ffcc" stroke-width="2" points="20.0,137.4 44.2,82.7 68.4,143.5 92.6,139.4 116.8,22.0 141.1,103.0 165.3,190.0 189.5,165.7 213.7,66.5 237.9,90.8 262.1,181.9 286.3,147.5 310.5,36.2 334.7,98.9 358.9,143.5 383.2,143.5 407.4,20.0 431.6,82.7 455.8,133.3 480.0,137.4"/>
<polyline fill="none" stroke="#ff9944" stroke-width="1" stroke-dasharray="3,2" opacity="0.7" points="20.0,110.1 44.2,121.2 68.4,121.9 92.6,101.6 116.8,88.1 141.1,105.0 165.3,152.9 189.5,140.8 213.7,107.7 237.9,113.1 262.1,140.1 286.3,121.9 310.5,94.2 334.7,92.9 358.9,128.6 383.2,102.3 407.4,82.1 431.6,78.7 455.8,117.8 480.0,135.4"/>
<text x="10" y="13" font-size="9" fill="#aaa">Temp (°C) — last 20 readings</text>
<text x="495" y="13" font-size="7" fill="#445" text-anchor="end">— MA3</text>
<text x="10" y="212" font-size="8" fill="#445">Updated: 2026-05-17 12:56 UTC</text>
</svg>