<svg width="500" height="215" viewBox="0 0 500 215" xmlns="http://www.w3.org/2000/svg">
<rect width="500" height="215" fill="#0b1a2a"/>
<text x="5" y="24" font-size="8" fill="#556">22.6</text>
<text x="5" y="190" font-size="8" fill="#556">10.9</text>
<polyline fill="none" stroke="#00ffcc" stroke-width="2" points="20.0,20.0 44.2,65.0 68.4,146.4 92.6,182.7 116.8,62.1 141.1,78.1 165.3,153.7 189.5,190.0 213.7,56.3 237.9,98.5 262.1,155.1 286.3,187.1 310.5,33.1 334.7,76.7 358.9,142.1 383.2,171.1 407.4,22.9 431.6,72.3 455.8,129.0 480.0,129.0"/>
<polyline fill="none" stroke="#ff9944" stroke-width="1" stroke-dasharray="3,2" opacity="0.7" points="20.0,42.5 44.2,77.2 68.4,131.4 92.6,130.4 116.8,107.7 141.1,98.0 165.3,140.6 189.5,133.3 213.7,114.9 237.9,103.3 262.1,146.9 286.3,125.1 310.5,98.9 334.7,83.9 358.9,129.9 383.2,112.0 407.4,88.8 431.6,74.7 455.8,110.1 480.0,129.0"/>
<text x="10" y="13" font-size="9" fill="#aaa">Temp (°C) — last 20 readings</text>
<text x="495" y="13" font-size="7" fill="#445" text-anchor="end">— MA3</text>
<text x="10" y="212" font-size="8" fill="#445">Updated: 2026-04-25 12:39 UTC</text>
</svg>