<svg width="500" height="215" viewBox="0 0 500 215" xmlns="http://www.w3.org/2000/svg">
<rect width="500" height="215" fill="#0b1a2a"/>
<text x="5" y="24" font-size="8" fill="#556">25.2</text>
<text x="5" y="190" font-size="8" fill="#556">10.9</text>
<polyline fill="none" stroke="#00ffcc" stroke-width="2" points="20.0,80.6 44.2,74.7 68.4,142.4 92.6,168.6 116.8,21.2 141.1,72.3 165.3,131.7 189.5,152.0 213.7,20.0 237.9,90.1 262.1,154.3 286.3,185.2 310.5,50.9 334.7,87.8 358.9,154.3 383.2,184.1 407.4,85.4 431.6,98.5 455.8,160.3 480.0,190.0"/>
<polyline fill="none" stroke="#ff9944" stroke-width="1" stroke-dasharray="3,2" opacity="0.7" points="20.0,77.7 44.2,99.3 68.4,128.6 92.6,110.7 116.8,87.4 141.1,75.1 165.3,118.7 189.5,101.2 213.7,87.4 237.9,88.2 262.1,143.2 286.3,130.2 310.5,108.0 334.7,97.7 358.9,142.1 383.2,141.3 407.4,122.6 431.6,114.7 455.8,149.6 480.0,175.1"/>
<text x="10" y="13" font-size="9" fill="#aaa">Temp (°C) — last 20 readings</text>
<text x="495" y="13" font-size="7" fill="#445" text-anchor="end">— MA3</text>
<text x="10" y="212" font-size="8" fill="#445">Updated: 2026-04-22 13:01 UTC</text>
</svg>