<svg width="500" height="215" viewBox="0 0 500 215" xmlns="http://www.w3.org/2000/svg">
<rect width="500" height="215" fill="#0b1a2a"/>
<text x="5" y="24" font-size="8" fill="#556">22.4</text>
<text x="5" y="190" font-size="8" fill="#556">11.1</text>
<polyline fill="none" stroke="#00ffcc" stroke-width="2" points="20.0,156.9 44.2,190.0 68.4,30.5 92.6,75.7 116.8,143.4 141.1,173.5 165.3,20.0 189.5,71.2 213.7,129.8 237.9,129.8 262.1,87.7 286.3,134.3 310.5,152.4 334.7,167.4 358.9,102.7 383.2,119.3 407.4,149.4 431.6,179.5 455.8,63.6 480.0,111.8"/>
<polyline fill="none" stroke="#ff9944" stroke-width="1" stroke-dasharray="3,2" opacity="0.7" points="20.0,173.5 44.2,125.8 68.4,98.7 92.6,83.2 116.8,130.8 141.1,112.3 165.3,88.2 189.5,73.7 213.7,110.3 237.9,115.8 262.1,117.3 286.3,124.8 310.5,151.4 334.7,140.9 358.9,129.8 383.2,123.8 407.4,149.4 431.6,130.8 455.8,118.3 480.0,87.7"/>
<text x="10" y="13" font-size="9" fill="#aaa">Temp (°C) — last 20 readings</text>
<text x="495" y="13" font-size="7" fill="#445" text-anchor="end">— MA3</text>
<text x="10" y="212" font-size="8" fill="#445">Updated: 2026-04-28 01:58 UTC</text>
</svg>