<svg width="500" height="215" viewBox="0 0 500 215" xmlns="http://www.w3.org/2000/svg">
<rect width="500" height="215" fill="#0b1a2a"/>
<text x="5" y="24" font-size="8" fill="#556">22.4</text>
<text x="5" y="190" font-size="8" fill="#556">11.0</text>
<polyline fill="none" stroke="#00ffcc" stroke-width="2" points="20.0,96.1 44.2,81.1 68.4,142.3 92.6,145.3 116.8,106.5 141.1,111.0 165.3,169.1 189.5,178.1 213.7,66.2 237.9,108.0 262.1,139.3 286.3,172.1 310.5,70.7 334.7,100.5 358.9,169.1 383.2,190.0 407.4,20.0 431.6,84.1 455.8,154.2 480.0,173.6"/>
<polyline fill="none" stroke="#ff9944" stroke-width="1" stroke-dasharray="3,2" opacity="0.7" points="20.0,88.6 44.2,106.5 68.4,122.9 92.6,131.3 116.8,120.9 141.1,128.9 165.3,152.7 189.5,137.8 213.7,117.4 237.9,104.5 262.1,139.8 286.3,127.4 310.5,114.4 334.7,113.5 358.9,153.2 383.2,126.4 407.4,98.0 431.6,86.1 455.8,137.3 480.0,163.9"/>
<text x="10" y="13" font-size="9" fill="#aaa">Temp (°C) — last 20 readings</text>
<text x="495" y="13" font-size="7" fill="#445" text-anchor="end">— MA3</text>
<text x="10" y="212" font-size="8" fill="#445">Updated: 2026-05-07 13:27 UTC</text>
</svg>