<svg width="500" height="215" viewBox="0 0 500 215" xmlns="http://www.w3.org/2000/svg">
<rect width="500" height="215" fill="#0b1a2a"/>
<text x="5" y="24" font-size="8" fill="#556">25.1</text>
<text x="5" y="190" font-size="8" fill="#556">11.0</text>
<polyline fill="none" stroke="#00ffcc" stroke-width="2" points="20.0,151.4 44.2,153.8 68.4,122.5 92.6,126.1 116.8,173.1 141.1,180.4 165.3,89.9 189.5,123.7 213.7,149.0 237.9,175.5 262.1,93.5 286.3,117.7 310.5,173.1 334.7,190.0 358.9,52.6 383.2,104.4 407.4,161.1 431.6,176.7 455.8,20.0 480.0,103.2"/>
<polyline fill="none" stroke="#ff9944" stroke-width="1" stroke-dasharray="3,2" opacity="0.7" points="20.0,152.6 44.2,142.6 68.4,134.1 92.6,140.6 116.8,159.9 141.1,147.8 165.3,131.3 189.5,120.9 213.7,149.4 237.9,139.4 262.1,128.9 286.3,128.1 310.5,160.3 334.7,138.6 358.9,115.7 383.2,106.0 407.4,147.4 431.6,119.3 455.8,100.0 480.0,61.6"/>
<text x="10" y="13" font-size="9" fill="#aaa">Temp (°C) — last 20 readings</text>
<text x="495" y="13" font-size="7" fill="#445" text-anchor="end">— MA3</text>
<text x="10" y="212" font-size="8" fill="#445">Updated: 2026-05-08 02:03 UTC</text>
</svg>