<svg width="500" height="215" viewBox="0 0 500 215" xmlns="http://www.w3.org/2000/svg">
<rect width="500" height="215" fill="#0b1a2a"/>
<text x="5" y="24" font-size="8" fill="#556">23.8</text>
<text x="5" y="190" font-size="8" fill="#556">10.5</text>
<polyline fill="none" stroke="#00ffcc" stroke-width="2" points="20.0,103.1 44.2,168.3 68.4,190.0 92.6,20.0 116.8,98.0 141.1,150.4 165.3,170.8 189.5,39.2 213.7,95.4 237.9,144.0 262.1,121.0 286.3,68.6 310.5,81.4 334.7,127.4 358.9,158.0 383.2,103.1 407.4,90.3 431.6,142.7 455.8,145.3 480.0,112.0"/>
<polyline fill="none" stroke="#ff9944" stroke-width="1" stroke-dasharray="3,2" opacity="0.7" points="20.0,135.7 44.2,153.8 68.4,126.1 92.6,102.7 116.8,89.4 141.1,139.7 165.3,120.1 189.5,101.8 213.7,92.9 237.9,120.1 262.1,111.2 286.3,90.3 310.5,92.4 334.7,122.3 358.9,129.5 383.2,117.1 407.4,112.0 431.6,126.1 455.8,133.3 480.0,128.6"/>
<text x="10" y="13" font-size="9" fill="#aaa">Temp (°C) — last 20 readings</text>
<text x="495" y="13" font-size="7" fill="#445" text-anchor="end">— MA3</text>
<text x="10" y="212" font-size="8" fill="#445">Updated: 2026-05-03 18:43 UTC</text>
</svg>