<svg width="500" height="215" viewBox="0 0 500 215" xmlns="http://www.w3.org/2000/svg">
<rect width="500" height="215" fill="#0b1a2a"/>
<text x="5" y="24" font-size="8" fill="#556">25.2</text>
<text x="5" y="190" font-size="8" fill="#556">11.3</text>
<polyline fill="none" stroke="#00ffcc" stroke-width="2" points="20.0,175.3 44.2,64.0 68.4,92.2 92.6,155.8 116.8,174.1 141.1,82.4 165.3,76.3 189.5,146.0 213.7,172.9 237.9,21.2 262.1,73.8 286.3,135.0 310.5,155.8 334.7,20.0 358.9,92.2 383.2,158.2 407.4,190.0 431.6,51.8 455.8,89.7 480.0,158.2"/>
<polyline fill="none" stroke="#ff9944" stroke-width="1" stroke-dasharray="3,2" opacity="0.7" points="20.0,119.7 44.2,110.5 68.4,104.0 92.6,140.7 116.8,137.4 141.1,110.9 165.3,101.5 189.5,131.7 213.7,113.4 237.9,89.3 262.1,76.7 286.3,121.5 310.5,103.6 334.7,89.3 358.9,90.1 383.2,146.8 407.4,133.3 431.6,110.5 455.8,99.9 480.0,124.0"/>
<text x="10" y="13" font-size="9" fill="#aaa">Temp (°C) — last 20 readings</text>
<text x="495" y="13" font-size="7" fill="#445" text-anchor="end">— MA3</text>
<text x="10" y="212" font-size="8" fill="#445">Updated: 2026-04-21 07:22 UTC</text>
</svg>