<svg width="500" height="215" viewBox="0 0 500 215" xmlns="http://www.w3.org/2000/svg">
<rect width="500" height="215" fill="#0b1a2a"/>
<text x="5" y="24" font-size="8" fill="#556">22.4</text>
<text x="5" y="190" font-size="8" fill="#556">10.9</text>
<polyline fill="none" stroke="#00ffcc" stroke-width="2" points="20.0,190.0 44.2,54.0 68.4,96.9 92.6,154.5 116.8,187.0 141.1,30.3 165.3,74.7 189.5,141.2 213.7,170.8 237.9,20.0 262.1,70.3 286.3,127.9 310.5,127.9 334.7,86.5 358.9,132.3 383.2,150.1 407.4,164.9 431.6,101.3 455.8,117.6 480.0,147.1"/>
<polyline fill="none" stroke="#ff9944" stroke-width="1" stroke-dasharray="3,2" opacity="0.7" points="20.0,122.0 44.2,113.6 68.4,101.8 92.6,146.1 116.8,124.0 141.1,97.4 165.3,82.1 189.5,128.9 213.7,110.7 237.9,87.0 262.1,72.7 286.3,108.7 310.5,114.1 334.7,115.6 358.9,123.0 383.2,149.1 407.4,138.8 431.6,127.9 455.8,122.0 480.0,132.3"/>
<text x="10" y="13" font-size="9" fill="#aaa">Temp (°C) — last 20 readings</text>
<text x="495" y="13" font-size="7" fill="#445" text-anchor="end">— MA3</text>
<text x="10" y="212" font-size="8" fill="#445">Updated: 2026-04-27 08:04 UTC</text>
</svg>