<svg width="500" height="215" viewBox="0 0 500 215" xmlns="http://www.w3.org/2000/svg">
<rect width="500" height="215" fill="#0b1a2a"/>
<text x="5" y="24" font-size="8" fill="#556">24.6</text>
<text x="5" y="190" font-size="8" fill="#556">13.4</text>
<polyline fill="none" stroke="#00ffcc" stroke-width="2" points="20.0,70.1 44.2,98.9 68.4,190.0 92.6,158.1 116.8,35.2 141.1,105.0 165.3,170.3 189.5,158.1 213.7,20.0 237.9,73.1 262.1,177.9 286.3,174.8 310.5,147.5 334.7,106.5 358.9,152.1 383.2,149.0 407.4,61.0 431.6,121.7 455.8,187.0 480.0,168.8"/>
<polyline fill="none" stroke="#ff9944" stroke-width="1" stroke-dasharray="3,2" opacity="0.7" points="20.0,84.5 44.2,119.7 68.4,149.0 92.6,127.8 116.8,99.4 141.1,103.5 165.3,144.5 189.5,116.1 213.7,83.7 237.9,90.3 262.1,141.9 286.3,166.7 310.5,142.9 334.7,135.4 358.9,135.9 383.2,120.7 407.4,110.6 431.6,123.2 455.8,159.1 480.0,177.9"/>
<text x="10" y="13" font-size="9" fill="#aaa">Temp (°C) — last 20 readings</text>
<text x="495" y="13" font-size="7" fill="#445" text-anchor="end">— MA3</text>
<text x="10" y="212" font-size="8" fill="#445">Updated: 2026-05-14 13:29 UTC</text>
</svg>