<svg width="500" height="215" viewBox="0 0 500 215" xmlns="http://www.w3.org/2000/svg">
<rect width="500" height="215" fill="#0b1a2a"/>
<text x="5" y="24" font-size="8" fill="#556">25.2</text>
<text x="5" y="190" font-size="8" fill="#556">12.5</text>
<polyline fill="none" stroke="#00ffcc" stroke-width="2" points="20.0,41.4 44.2,80.2 68.4,80.2 92.6,105.7 116.8,179.3 141.1,190.0 165.3,68.2 189.5,99.0 213.7,168.6 237.9,188.7 262.1,88.3 286.3,81.6 310.5,157.9 334.7,187.3 358.9,21.3 383.2,78.9 407.4,145.8 431.6,168.6 455.8,20.0 480.0,99.0"/>
<polyline fill="none" stroke="#ff9944" stroke-width="1" stroke-dasharray="3,2" opacity="0.7" points="20.0,60.8 44.2,67.3 68.4,88.7 92.6,121.7 116.8,158.3 141.1,145.8 165.3,119.1 189.5,111.9 213.7,152.1 237.9,148.5 262.1,119.5 286.3,109.2 310.5,142.3 334.7,122.2 358.9,95.9 383.2,82.0 407.4,131.1 431.6,111.5 455.8,95.9 480.0,59.5"/>
<text x="10" y="13" font-size="9" fill="#aaa">Temp (°C) — last 20 readings</text>
<text x="495" y="13" font-size="7" fill="#445" text-anchor="end">— MA3</text>
<text x="10" y="212" font-size="8" fill="#445">Updated: 2026-04-20 01:47 UTC</text>
</svg>