<svg width="500" height="215" viewBox="0 0 500 215" xmlns="http://www.w3.org/2000/svg">
<rect width="500" height="215" fill="#0b1a2a"/>
<text x="5" y="24" font-size="8" fill="#556">20.0</text>
<text x="5" y="190" font-size="8" fill="#556">11.0</text>
<polyline fill="none" stroke="#00ffcc" stroke-width="2" points="20.0,20.0 44.2,38.9 68.4,106.9 92.6,152.2 116.8,71.0 141.1,52.1 165.3,129.6 189.5,133.3 213.7,84.2 237.9,89.9 262.1,163.6 286.3,174.9 310.5,33.2 334.7,86.1 358.9,125.8 383.2,167.3 407.4,38.9 431.6,76.7 455.8,163.6 480.0,190.0"/>
<polyline fill="none" stroke="#ff9944" stroke-width="1" stroke-dasharray="3,2" opacity="0.7" points="20.0,29.4 44.2,55.3 68.4,99.3 92.6,110.0 116.8,91.8 141.1,84.2 165.3,105.0 189.5,115.7 213.7,102.5 237.9,112.6 262.1,142.8 286.3,123.9 310.5,98.1 334.7,81.7 358.9,126.4 383.2,110.7 407.4,94.3 431.6,93.0 455.8,143.4 480.0,176.8"/>
<text x="10" y="13" font-size="9" fill="#aaa">Temp (°C) — last 20 readings</text>
<text x="495" y="13" font-size="7" fill="#445" text-anchor="end">— MA3</text>
<text x="10" y="212" font-size="8" fill="#445">Updated: 2026-05-06 13:29 UTC</text>
</svg>