<svg width="500" height="215" viewBox="0 0 500 215" xmlns="http://www.w3.org/2000/svg">
<rect width="500" height="215" fill="#0b1a2a"/>
<text x="5" y="24" font-size="8" fill="#556">22.4</text>
<text x="5" y="190" font-size="8" fill="#556">10.9</text>
<polyline fill="none" stroke="#00ffcc" stroke-width="2" points="20.0,145.7 44.2,182.6 68.4,59.9 92.6,76.2 116.8,153.0 141.1,190.0 165.3,54.0 189.5,96.9 213.7,154.5 237.9,187.0 262.1,30.3 286.3,74.7 310.5,141.2 334.7,170.8 358.9,20.0 383.2,70.3 407.4,127.9 431.6,127.9 455.8,86.5 480.0,132.3"/>
<polyline fill="none" stroke="#ff9944" stroke-width="1" stroke-dasharray="3,2" opacity="0.7" points="20.0,164.1 44.2,129.4 68.4,106.2 92.6,96.4 116.8,139.7 141.1,132.3 165.3,113.6 189.5,101.8 213.7,146.1 237.9,124.0 262.1,97.4 286.3,82.1 310.5,128.9 334.7,110.7 358.9,87.0 383.2,72.7 407.4,108.7 431.6,114.1 455.8,115.6 480.0,109.4"/>
<text x="10" y="13" font-size="9" fill="#aaa">Temp (°C) — last 20 readings</text>
<text x="495" y="13" font-size="7" fill="#445" text-anchor="end">— MA3</text>
<text x="10" y="212" font-size="8" fill="#445">Updated: 2026-04-26 01:47 UTC</text>
</svg>