<svg width="500" height="215" viewBox="0 0 500 215" xmlns="http://www.w3.org/2000/svg">
<rect width="500" height="215" fill="#0b1a2a"/>
<text x="5" y="24" font-size="8" fill="#556">23.8</text>
<text x="5" y="190" font-size="8" fill="#556">9.7</text>
<polyline fill="none" stroke="#00ffcc" stroke-width="2" points="20.0,155.0 44.2,103.2 68.4,116.5 92.6,140.6 116.8,164.7 141.1,71.8 165.3,110.4 189.5,156.2 213.7,190.0 237.9,33.3 262.1,98.4 286.3,159.9 310.5,180.4 334.7,20.0 358.9,93.5 383.2,143.0 407.4,162.3 431.6,38.1 455.8,91.1 480.0,137.0"/>
<polyline fill="none" stroke="#ff9944" stroke-width="1" stroke-dasharray="3,2" opacity="0.7" points="20.0,129.1 44.2,124.9 68.4,120.1 92.6,140.6 116.8,125.7 141.1,115.7 165.3,112.8 189.5,152.2 213.7,126.5 237.9,107.2 262.1,97.2 286.3,146.2 310.5,120.1 334.7,98.0 358.9,85.5 383.2,132.9 407.4,114.4 431.6,97.2 455.8,88.7 480.0,114.0"/>
<text x="10" y="13" font-size="9" fill="#aaa">Temp (°C) — last 20 readings</text>
<text x="495" y="13" font-size="7" fill="#445" text-anchor="end">— MA3</text>
<text x="10" y="212" font-size="8" fill="#445">Updated: 2026-05-01 08:01 UTC</text>
</svg>