<svg width="500" height="215" viewBox="0 0 500 215" xmlns="http://www.w3.org/2000/svg">
<rect width="500" height="215" fill="#0b1a2a"/>
<text x="5" y="24" font-size="8" fill="#556">25.2</text>
<text x="5" y="190" font-size="8" fill="#556">10.9</text>
<polyline fill="none" stroke="#00ffcc" stroke-width="2" points="20.0,72.3 44.2,131.7 68.4,152.0 92.6,20.0 116.8,90.1 141.1,154.3 165.3,185.2 189.5,50.9 213.7,87.8 237.9,154.3 262.1,184.1 286.3,85.4 310.5,98.5 334.7,160.3 358.9,190.0 383.2,80.6 407.4,115.1 431.6,161.5 455.8,187.6 480.0,61.6"/>
<polyline fill="none" stroke="#ff9944" stroke-width="1" stroke-dasharray="3,2" opacity="0.7" points="20.0,102.0 44.2,118.7 68.4,101.2 92.6,87.4 116.8,88.2 141.1,143.2 165.3,130.2 189.5,108.0 213.7,97.7 237.9,142.1 262.1,141.3 286.3,122.6 310.5,114.7 334.7,149.6 358.9,143.6 383.2,128.6 407.4,119.1 431.6,154.7 455.8,136.9 480.0,124.6"/>
<text x="10" y="13" font-size="9" fill="#aaa">Temp (°C) — last 20 readings</text>
<text x="495" y="13" font-size="7" fill="#445" text-anchor="end">— MA3</text>
<text x="10" y="212" font-size="8" fill="#445">Updated: 2026-04-23 18:55 UTC</text>
</svg>