<svg width="500" height="215" viewBox="0 0 500 215" xmlns="http://www.w3.org/2000/svg">
<rect width="500" height="215" fill="#0b1a2a"/>
<text x="5" y="24" font-size="8" fill="#556">22.0</text>
<text x="5" y="190" font-size="8" fill="#556">13.6</text>
<polyline fill="none" stroke="#00ffcc" stroke-width="2" points="20.0,38.2 44.2,177.9 68.4,173.8 92.6,137.4 116.8,82.7 141.1,143.5 165.3,139.4 189.5,22.0 213.7,103.0 237.9,190.0 262.1,165.7 286.3,66.5 310.5,90.8 334.7,181.9 358.9,147.5 383.2,36.2 407.4,98.9 431.6,143.5 455.8,143.5 480.0,20.0"/>
<polyline fill="none" stroke="#ff9944" stroke-width="1" stroke-dasharray="3,2" opacity="0.7" points="20.0,108.0 44.2,130.0 68.4,163.0 92.6,131.3 116.8,121.2 141.1,121.9 165.3,101.6 189.5,88.1 213.7,105.0 237.9,152.9 262.1,140.8 286.3,107.7 310.5,113.1 334.7,140.1 358.9,121.9 383.2,94.2 407.4,92.9 431.6,128.6 455.8,102.3 480.0,81.7"/>
<text x="10" y="13" font-size="9" fill="#aaa">Temp (°C) — last 20 readings</text>
<text x="495" y="13" font-size="7" fill="#445" text-anchor="end">— MA3</text>
<text x="10" y="212" font-size="8" fill="#445">Updated: 2026-05-16 18:49 UTC</text>
</svg>