<svg width="500" height="215" viewBox="0 0 500 215" xmlns="http://www.w3.org/2000/svg">
<rect width="500" height="215" fill="#0b1a2a"/>
<text x="5" y="24" font-size="8" fill="#556">24.6</text>
<text x="5" y="190" font-size="8" fill="#556">13.4</text>
<polyline fill="none" stroke="#00ffcc" stroke-width="2" points="20.0,167.2 44.2,153.6 68.4,70.1 92.6,123.2 116.8,171.8 141.1,153.6 165.3,70.1 189.5,98.9 213.7,190.0 237.9,158.1 262.1,35.2 286.3,105.0 310.5,170.3 334.7,158.1 358.9,20.0 383.2,73.1 407.4,177.9 431.6,174.8 455.8,147.5 480.0,106.5"/>
<polyline fill="none" stroke="#ff9944" stroke-width="1" stroke-dasharray="3,2" opacity="0.7" points="20.0,160.4 44.2,130.3 68.4,115.6 92.6,121.7 116.8,149.5 141.1,131.8 165.3,107.5 189.5,119.7 213.7,149.0 237.9,127.8 262.1,99.4 286.3,103.5 310.5,144.5 334.7,116.1 358.9,83.7 383.2,90.3 407.4,141.9 431.6,166.7 455.8,142.9 480.0,127.0"/>
<text x="10" y="13" font-size="9" fill="#aaa">Temp (°C) — last 20 readings</text>
<text x="495" y="13" font-size="7" fill="#445" text-anchor="end">— MA3</text>
<text x="10" y="212" font-size="8" fill="#445">Updated: 2026-05-13 02:09 UTC</text>
</svg>