<svg width="500" height="215" viewBox="0 0 500 215" xmlns="http://www.w3.org/2000/svg">
<rect width="500" height="215" fill="#0b1a2a"/>
<text x="5" y="24" font-size="8" fill="#556">24.6</text>
<text x="5" y="190" font-size="8" fill="#556">13.6</text>
<polyline fill="none" stroke="#00ffcc" stroke-width="2" points="20.0,35.5 44.2,106.5 68.4,173.0 92.6,160.6 116.8,20.0 141.1,74.1 165.3,180.7 189.5,177.6 213.7,149.8 237.9,108.1 262.1,154.5 286.3,151.4 310.5,61.7 334.7,123.5 358.9,190.0 383.2,171.5 407.4,95.7 431.6,114.3 455.8,183.8 480.0,157.5"/>
<polyline fill="none" stroke="#ff9944" stroke-width="1" stroke-dasharray="3,2" opacity="0.7" points="20.0,71.0 44.2,105.0 68.4,146.7 92.6,117.9 116.8,84.9 141.1,91.6 165.3,144.2 189.5,169.4 213.7,145.2 237.9,137.5 262.1,138.0 286.3,122.5 310.5,112.2 334.7,125.1 358.9,161.7 383.2,152.4 407.4,127.2 431.6,131.3 455.8,151.9 480.0,170.7"/>
<text x="10" y="13" font-size="9" fill="#aaa">Temp (°C) — last 20 readings</text>
<text x="495" y="13" font-size="7" fill="#445" text-anchor="end">— MA3</text>
<text x="10" y="212" font-size="8" fill="#445">Updated: 2026-05-15 13:29 UTC</text>
</svg>