<svg width="500" height="215" viewBox="0 0 500 215" xmlns="http://www.w3.org/2000/svg">
<rect width="500" height="215" fill="#0b1a2a"/>
<text x="5" y="24" font-size="8" fill="#556">25.1</text>
<text x="5" y="190" font-size="8" fill="#556">12.1</text>
<polyline fill="none" stroke="#00ffcc" stroke-width="2" points="20.0,111.5 44.2,173.0 68.4,190.0 92.6,20.0 116.8,110.2 141.1,153.4 165.3,141.6 189.5,69.7 213.7,115.5 237.9,157.3 262.1,141.6 286.3,69.7 310.5,94.5 334.7,173.0 358.9,145.5 383.2,39.6 407.4,99.8 431.6,156.0 455.8,145.5 480.0,26.5"/>
<polyline fill="none" stroke="#ff9944" stroke-width="1" stroke-dasharray="3,2" opacity="0.7" points="20.0,142.3 44.2,158.2 68.4,127.7 92.6,106.7 116.8,94.5 141.1,135.1 165.3,121.6 189.5,108.9 213.7,114.2 237.9,138.1 262.1,122.9 286.3,101.9 310.5,112.4 334.7,137.7 358.9,119.4 383.2,95.0 407.4,98.5 431.6,133.8 455.8,109.4 480.0,86.0"/>
<text x="10" y="13" font-size="9" fill="#aaa">Temp (°C) — last 20 readings</text>
<text x="495" y="13" font-size="7" fill="#445" text-anchor="end">— MA3</text>
<text x="10" y="212" font-size="8" fill="#445">Updated: 2026-05-11 19:27 UTC</text>
</svg>