<svg width="500" height="215" viewBox="0 0 500 215" xmlns="http://www.w3.org/2000/svg">
<rect width="500" height="215" fill="#0b1a2a"/>
<text x="5" y="24" font-size="8" fill="#556">25.2</text>
<text x="5" y="190" font-size="8" fill="#556">12.1</text>
<polyline fill="none" stroke="#00ffcc" stroke-width="2" points="20.0,190.0 44.2,40.8 68.4,78.4 92.6,78.4 116.8,103.1 141.1,174.4 165.3,184.8 189.5,66.7 213.7,96.6 237.9,164.0 262.1,183.5 286.3,86.2 310.5,79.7 334.7,153.7 358.9,182.2 383.2,21.3 407.4,77.1 431.6,142.0 455.8,164.0 480.0,20.0"/>
<polyline fill="none" stroke="#ff9944" stroke-width="1" stroke-dasharray="3,2" opacity="0.7" points="20.0,115.4 44.2,103.1 68.4,65.9 92.6,86.6 116.8,118.6 141.1,154.1 165.3,142.0 189.5,116.0 213.7,109.1 237.9,148.0 262.1,144.6 286.3,116.5 310.5,106.5 334.7,138.5 358.9,119.1 383.2,93.5 407.4,80.1 431.6,127.7 455.8,108.7 480.0,92.0"/>
<text x="10" y="13" font-size="9" fill="#aaa">Temp (°C) — last 20 readings</text>
<text x="495" y="13" font-size="7" fill="#445" text-anchor="end">— MA3</text>
<text x="10" y="212" font-size="8" fill="#445">Updated: 2026-04-19 18:34 UTC</text>
</svg>