<svg width="500" height="215" viewBox="0 0 500 215" xmlns="http://www.w3.org/2000/svg">
<rect width="500" height="215" fill="#0b1a2a"/>
<text x="5" y="24" font-size="8" fill="#556">25.1</text>
<text x="5" y="190" font-size="8" fill="#556">12.1</text>
<polyline fill="none" stroke="#00ffcc" stroke-width="2" points="20.0,179.5 44.2,180.8 68.4,190.0 92.6,39.6 116.8,77.5 141.1,77.5 165.3,102.4 189.5,174.3 213.7,184.8 237.9,65.8 262.1,95.8 286.3,163.8 310.5,183.5 334.7,85.4 358.9,78.8 383.2,153.4 407.4,182.2 431.6,20.0 455.8,76.2 480.0,141.6"/>
<polyline fill="none" stroke="#ff9944" stroke-width="1" stroke-dasharray="3,2" opacity="0.7" points="20.0,180.2 44.2,183.5 68.4,136.8 92.6,102.4 116.8,64.9 141.1,85.8 165.3,118.1 189.5,153.8 213.7,141.6 237.9,115.5 262.1,108.5 286.3,147.7 310.5,144.2 334.7,115.9 358.9,105.9 383.2,138.1 407.4,118.5 431.6,92.8 455.8,79.3 480.0,108.9"/>
<text x="10" y="13" font-size="9" fill="#aaa">Temp (°C) — last 20 readings</text>
<text x="495" y="13" font-size="7" fill="#445" text-anchor="end">— MA3</text>
<text x="10" y="212" font-size="8" fill="#445">Updated: 2026-04-19 07:07 UTC</text>
</svg>