<svg width="500" height="215" viewBox="0 0 500 215" xmlns="http://www.w3.org/2000/svg">
<rect width="500" height="215" fill="#0b1a2a"/>
<text x="5" y="24" font-size="8" fill="#556">25.1</text>
<text x="5" y="190" font-size="8" fill="#556">12.1</text>
<polyline fill="none" stroke="#00ffcc" stroke-width="2" points="20.0,179.5 44.2,179.5 68.4,179.5 92.6,180.8 116.8,190.0 141.1,39.6 165.3,77.5 189.5,77.5 213.7,102.4 237.9,174.3 262.1,184.8 286.3,65.8 310.5,95.8 334.7,163.8 358.9,183.5 383.2,85.4 407.4,78.8 431.6,153.4 455.8,182.2 480.0,20.0"/>
<polyline fill="none" stroke="#ff9944" stroke-width="1" stroke-dasharray="3,2" opacity="0.7" points="20.0,179.5 44.2,179.5 68.4,180.0 92.6,183.5 116.8,136.8 141.1,102.4 165.3,64.9 189.5,85.8 213.7,118.1 237.9,153.8 262.1,141.6 286.3,115.5 310.5,108.5 334.7,147.7 358.9,144.2 383.2,115.9 407.4,105.9 431.6,138.1 455.8,118.5 480.0,101.1"/>
<text x="10" y="13" font-size="9" fill="#aaa">Temp (°C) — last 20 readings</text>
<text x="495" y="13" font-size="7" fill="#445" text-anchor="end">— MA3</text>
<text x="10" y="212" font-size="8" fill="#445">Updated: 2026-04-18 18:33 UTC</text>
</svg>