<svg width="500" height="215" viewBox="0 0 500 215" xmlns="http://www.w3.org/2000/svg">
<rect width="500" height="215" fill="#0b1a2a"/>
<text x="5" y="24" font-size="8" fill="#556">22.7</text>
<text x="5" y="190" font-size="8" fill="#556">9.7</text>
<polyline fill="none" stroke="#00ffcc" stroke-width="2" points="20.0,23.9 44.2,68.4 68.4,119.4 92.6,119.4 116.8,82.8 141.1,123.3 165.3,139.0 189.5,152.1 213.7,95.8 237.9,110.2 262.1,136.4 286.3,162.5 310.5,61.8 334.7,103.7 358.9,153.4 383.2,190.0 407.4,20.0 431.6,90.6 455.8,157.3 480.0,179.5"/>
<polyline fill="none" stroke="#ff9944" stroke-width="1" stroke-dasharray="3,2" opacity="0.7" points="20.0,46.2 44.2,70.6 68.4,102.4 92.6,107.2 116.8,108.5 141.1,115.0 165.3,138.1 189.5,129.0 213.7,119.4 237.9,114.2 262.1,136.4 286.3,120.3 310.5,109.4 334.7,106.3 358.9,149.0 383.2,121.1 407.4,100.2 431.6,89.3 455.8,142.5 480.0,168.4"/>
<text x="10" y="13" font-size="9" fill="#aaa">Temp (°C) — last 20 readings</text>
<text x="495" y="13" font-size="7" fill="#445" text-anchor="end">— MA3</text>
<text x="10" y="212" font-size="8" fill="#445">Updated: 2026-04-29 13:23 UTC</text>
</svg>