<svg width="500" height="215" viewBox="0 0 500 215" xmlns="http://www.w3.org/2000/svg">
<rect width="500" height="215" fill="#0b1a2a"/>
<text x="5" y="24" font-size="8" fill="#556">22.4</text>
<text x="5" y="190" font-size="8" fill="#556">11.1</text>
<polyline fill="none" stroke="#00ffcc" stroke-width="2" points="20.0,190.0 44.2,30.5 68.4,75.7 92.6,143.4 116.8,173.5 141.1,20.0 165.3,71.2 189.5,129.8 213.7,129.8 237.9,87.7 262.1,134.3 286.3,152.4 310.5,167.4 334.7,102.7 358.9,119.3 383.2,149.4 407.4,179.5 431.6,63.6 455.8,111.8 480.0,168.9"/>
<polyline fill="none" stroke="#ff9944" stroke-width="1" stroke-dasharray="3,2" opacity="0.7" points="20.0,110.3 44.2,98.7 68.4,83.2 92.6,130.8 116.8,112.3 141.1,88.2 165.3,73.7 189.5,110.3 213.7,115.8 237.9,117.3 262.1,124.8 286.3,151.4 310.5,140.9 334.7,129.8 358.9,123.8 383.2,149.4 407.4,130.8 431.6,118.3 455.8,114.8 480.0,140.4"/>
<text x="10" y="13" font-size="9" fill="#aaa">Temp (°C) — last 20 readings</text>
<text x="495" y="13" font-size="7" fill="#445" text-anchor="end">— MA3</text>
<text x="10" y="212" font-size="8" fill="#445">Updated: 2026-04-28 08:06 UTC</text>
</svg>