<svg width="500" height="215" viewBox="0 0 500 215" xmlns="http://www.w3.org/2000/svg">
<rect width="500" height="215" fill="#0b1a2a"/>
<text x="5" y="24" font-size="8" fill="#556">22.0</text>
<text x="5" y="190" font-size="8" fill="#556">13.6</text>
<polyline fill="none" stroke="#00ffcc" stroke-width="2" points="20.0,177.9 44.2,173.8 68.4,137.4 92.6,82.7 116.8,143.5 141.1,139.4 165.3,22.0 189.5,103.0 213.7,190.0 237.9,165.7 262.1,66.5 286.3,90.8 310.5,181.9 334.7,147.5 358.9,36.2 383.2,98.9 407.4,143.5 431.6,143.5 455.8,20.0 480.0,82.7"/>
<polyline fill="none" stroke="#ff9944" stroke-width="1" stroke-dasharray="3,2" opacity="0.7" points="20.0,175.8 44.2,163.0 68.4,131.3 92.6,121.2 116.8,121.9 141.1,101.6 165.3,88.1 189.5,105.0 213.7,152.9 237.9,140.8 262.1,107.7 286.3,113.1 310.5,140.1 334.7,121.9 358.9,94.2 383.2,92.9 407.4,128.6 431.6,102.3 455.8,82.1 480.0,51.4"/>
<text x="10" y="13" font-size="9" fill="#aaa">Temp (°C) — last 20 readings</text>
<text x="495" y="13" font-size="7" fill="#445" text-anchor="end">— MA3</text>
<text x="10" y="212" font-size="8" fill="#445">Updated: 2026-05-17 02:04 UTC</text>
</svg>