<svg width="500" height="215" viewBox="0 0 500 215" xmlns="http://www.w3.org/2000/svg">
<rect width="500" height="215" fill="#0b1a2a"/>
<text x="5" y="24" font-size="8" fill="#556">24.6</text>
<text x="5" y="190" font-size="8" fill="#556">13.4</text>
<polyline fill="none" stroke="#00ffcc" stroke-width="2" points="20.0,153.6 44.2,70.1 68.4,98.9 92.6,190.0 116.8,158.1 141.1,35.2 165.3,105.0 189.5,170.3 213.7,158.1 237.9,20.0 262.1,73.1 286.3,177.9 310.5,174.8 334.7,147.5 358.9,106.5 383.2,152.1 407.4,149.0 431.6,61.0 455.8,121.7 480.0,187.0"/>
<polyline fill="none" stroke="#ff9944" stroke-width="1" stroke-dasharray="3,2" opacity="0.7" points="20.0,111.8 44.2,107.5 68.4,119.7 92.6,149.0 116.8,127.8 141.1,99.4 165.3,103.5 189.5,144.5 213.7,116.1 237.9,83.7 262.1,90.3 286.3,141.9 310.5,166.7 334.7,142.9 358.9,135.4 383.2,135.9 407.4,120.7 431.6,110.6 455.8,123.2 480.0,154.3"/>
<text x="10" y="13" font-size="9" fill="#aaa">Temp (°C) — last 20 readings</text>
<text x="495" y="13" font-size="7" fill="#445" text-anchor="end">— MA3</text>
<text x="10" y="212" font-size="8" fill="#445">Updated: 2026-05-14 08:27 UTC</text>
</svg>