<svg width="500" height="215" viewBox="0 0 500 215" xmlns="http://www.w3.org/2000/svg">
<rect width="500" height="215" fill="#0b1a2a"/>
<text x="5" y="24" font-size="8" fill="#556">25.1</text>
<text x="5" y="190" font-size="8" fill="#556">11.0</text>
<polyline fill="none" stroke="#00ffcc" stroke-width="2" points="20.0,190.0 44.2,52.6 68.4,104.4 92.6,161.1 116.8,176.7 141.1,20.0 165.3,103.2 189.5,143.0 213.7,132.1 237.9,65.8 262.1,108.0 286.3,146.6 310.5,132.1 334.7,65.8 358.9,88.7 383.2,161.1 407.4,135.7 431.6,38.1 455.8,93.5 480.0,145.4"/>
<polyline fill="none" stroke="#ff9944" stroke-width="1" stroke-dasharray="3,2" opacity="0.7" points="20.0,121.3 44.2,115.7 68.4,106.0 92.6,147.4 116.8,119.3 141.1,100.0 165.3,88.7 189.5,126.1 213.7,113.6 237.9,102.0 262.1,106.8 286.3,128.9 310.5,114.8 334.7,95.6 358.9,105.2 383.2,128.5 407.4,111.6 431.6,89.1 455.8,92.3 480.0,119.5"/>
<text x="10" y="13" font-size="9" fill="#aaa">Temp (°C) — last 20 readings</text>
<text x="495" y="13" font-size="7" fill="#445" text-anchor="end">— MA3</text>
<text x="10" y="212" font-size="8" fill="#445">Updated: 2026-05-11 08:58 UTC</text>
</svg>