<svg width="500" height="215" viewBox="0 0 500 215" xmlns="http://www.w3.org/2000/svg">
<rect width="500" height="215" fill="#0b1a2a"/>
<text x="5" y="24" font-size="8" fill="#556">22.4</text>
<text x="5" y="190" font-size="8" fill="#556">11.0</text>
<polyline fill="none" stroke="#00ffcc" stroke-width="2" points="20.0,70.7 44.2,124.4 68.4,160.2 92.6,96.1 116.8,81.1 141.1,142.3 165.3,145.3 189.5,106.5 213.7,111.0 237.9,169.1 262.1,178.1 286.3,66.2 310.5,108.0 334.7,139.3 358.9,172.1 383.2,70.7 407.4,100.5 431.6,169.1 455.8,190.0 480.0,20.0"/>
<polyline fill="none" stroke="#ff9944" stroke-width="1" stroke-dasharray="3,2" opacity="0.7" points="20.0,97.5 44.2,118.4 68.4,126.9 92.6,112.5 116.8,106.5 141.1,122.9 165.3,131.3 189.5,120.9 213.7,128.9 237.9,152.7 262.1,137.8 286.3,117.4 310.5,104.5 334.7,139.8 358.9,127.4 383.2,114.4 407.4,113.5 431.6,153.2 455.8,126.4 480.0,105.0"/>
<text x="10" y="13" font-size="9" fill="#aaa">Temp (°C) — last 20 readings</text>
<text x="495" y="13" font-size="7" fill="#445" text-anchor="end">— MA3</text>
<text x="10" y="212" font-size="8" fill="#445">Updated: 2026-05-06 19:26 UTC</text>
</svg>