<svg width="500" height="215" viewBox="0 0 500 215" xmlns="http://www.w3.org/2000/svg">
<rect width="500" height="215" fill="#0b1a2a"/>
<text x="5" y="24" font-size="8" fill="#556">25.2</text>
<text x="5" y="190" font-size="8" fill="#556">10.9</text>
<polyline fill="none" stroke="#00ffcc" stroke-width="2" points="20.0,168.6 44.2,21.2 68.4,72.3 92.6,131.7 116.8,152.0 141.1,20.0 165.3,90.1 189.5,154.3 213.7,185.2 237.9,50.9 262.1,87.8 286.3,154.3 310.5,184.1 334.7,85.4 358.9,98.5 383.2,160.3 407.4,190.0 431.6,80.6 455.8,115.1 480.0,161.5"/>
<polyline fill="none" stroke="#ff9944" stroke-width="1" stroke-dasharray="3,2" opacity="0.7" points="20.0,94.9 44.2,87.4 68.4,75.1 92.6,118.7 116.8,101.2 141.1,87.4 165.3,88.2 189.5,143.2 213.7,130.2 237.9,108.0 262.1,97.7 286.3,142.1 310.5,141.3 334.7,122.6 358.9,114.7 383.2,149.6 407.4,143.6 431.6,128.6 455.8,119.1 480.0,138.3"/>
<text x="10" y="13" font-size="9" fill="#aaa">Temp (°C) — last 20 readings</text>
<text x="495" y="13" font-size="7" fill="#445" text-anchor="end">— MA3</text>
<text x="10" y="212" font-size="8" fill="#445">Updated: 2026-04-23 07:22 UTC</text>
</svg>