<svg width="500" height="215" viewBox="0 0 500 215" xmlns="http://www.w3.org/2000/svg">
<rect width="500" height="215" fill="#0b1a2a"/>
<text x="5" y="24" font-size="8" fill="#556">25.1</text>
<text x="5" y="190" font-size="8" fill="#556">12.1</text>
<polyline fill="none" stroke="#00ffcc" stroke-width="2" points="20.0,173.0 44.2,190.0 68.4,20.0 92.6,110.2 116.8,153.4 141.1,141.6 165.3,69.7 189.5,115.5 213.7,157.3 237.9,141.6 262.1,69.7 286.3,94.5 310.5,173.0 334.7,145.5 358.9,39.6 383.2,99.8 407.4,156.0 431.6,145.5 455.8,26.5 480.0,72.3"/>
<polyline fill="none" stroke="#ff9944" stroke-width="1" stroke-dasharray="3,2" opacity="0.7" points="20.0,181.5 44.2,127.7 68.4,106.7 92.6,94.5 116.8,135.1 141.1,121.6 165.3,108.9 189.5,114.2 213.7,138.1 237.9,122.9 262.1,101.9 286.3,112.4 310.5,137.7 334.7,119.4 358.9,95.0 383.2,98.5 407.4,133.8 431.6,109.4 455.8,81.5 480.0,49.4"/>
<text x="10" y="13" font-size="9" fill="#aaa">Temp (°C) — last 20 readings</text>
<text x="495" y="13" font-size="7" fill="#445" text-anchor="end">— MA3</text>
<text x="10" y="212" font-size="8" fill="#445">Updated: 2026-05-12 02:03 UTC</text>
</svg>