<svg width="500" height="215" viewBox="0 0 500 215" xmlns="http://www.w3.org/2000/svg">
<rect width="500" height="215" fill="#0b1a2a"/>
<text x="5" y="24" font-size="8" fill="#556">25.2</text>
<text x="5" y="190" font-size="8" fill="#556">12.5</text>
<polyline fill="none" stroke="#00ffcc" stroke-width="2" points="20.0,80.2 44.2,80.2 68.4,105.7 92.6,179.3 116.8,190.0 141.1,68.2 165.3,99.0 189.5,168.6 213.7,188.7 237.9,88.3 262.1,81.6 286.3,157.9 310.5,187.3 334.7,21.3 358.9,78.9 383.2,145.8 407.4,168.6 431.6,20.0 455.8,99.0 480.0,171.3"/>
<polyline fill="none" stroke="#ff9944" stroke-width="1" stroke-dasharray="3,2" opacity="0.7" points="20.0,80.2 44.2,88.7 68.4,121.7 92.6,158.3 116.8,145.8 141.1,119.1 165.3,111.9 189.5,152.1 213.7,148.5 237.9,119.5 262.1,109.2 286.3,142.3 310.5,122.2 334.7,95.9 358.9,82.0 383.2,131.1 407.4,111.5 431.6,95.9 455.8,96.7 480.0,135.1"/>
<text x="10" y="13" font-size="9" fill="#aaa">Temp (°C) — last 20 readings</text>
<text x="495" y="13" font-size="7" fill="#445" text-anchor="end">— MA3</text>
<text x="10" y="212" font-size="8" fill="#445">Updated: 2026-04-20 07:51 UTC</text>
</svg>