<svg width="500" height="215" viewBox="0 0 500 215" xmlns="http://www.w3.org/2000/svg">
<rect width="500" height="215" fill="#0b1a2a"/>
<text x="5" y="24" font-size="8" fill="#556">22.6</text>
<text x="5" y="190" font-size="8" fill="#556">10.9</text>
<polyline fill="none" stroke="#00ffcc" stroke-width="2" points="20.0,184.2 44.2,20.0 68.4,65.0 92.6,146.4 116.8,182.7 141.1,62.1 165.3,78.1 189.5,153.7 213.7,190.0 237.9,56.3 262.1,98.5 286.3,155.1 310.5,187.1 334.7,33.1 358.9,76.7 383.2,142.1 407.4,171.1 431.6,22.9 455.8,72.3 480.0,129.0"/>
<polyline fill="none" stroke="#ff9944" stroke-width="1" stroke-dasharray="3,2" opacity="0.7" points="20.0,102.1 44.2,89.7 68.4,77.2 92.6,131.4 116.8,130.4 141.1,107.7 165.3,98.0 189.5,140.6 213.7,133.3 237.9,114.9 262.1,103.3 286.3,146.9 310.5,125.1 334.7,98.9 358.9,83.9 383.2,129.9 407.4,112.0 431.6,88.8 455.8,74.7 480.0,100.6"/>
<text x="10" y="13" font-size="9" fill="#aaa">Temp (°C) — last 20 readings</text>
<text x="495" y="13" font-size="7" fill="#445" text-anchor="end">— MA3</text>
<text x="10" y="212" font-size="8" fill="#445">Updated: 2026-04-25 07:02 UTC</text>
</svg>