<svg width="500" height="215" viewBox="0 0 500 215" xmlns="http://www.w3.org/2000/svg">
<rect width="500" height="215" fill="#0b1a2a"/>
<text x="5" y="24" font-size="8" fill="#556">24.6</text>
<text x="5" y="190" font-size="8" fill="#556">13.4</text>
<polyline fill="none" stroke="#00ffcc" stroke-width="2" points="20.0,123.2 44.2,171.8 68.4,153.6 92.6,70.1 116.8,98.9 141.1,190.0 165.3,158.1 189.5,35.2 213.7,105.0 237.9,170.3 262.1,158.1 286.3,20.0 310.5,73.1 334.7,177.9 358.9,174.8 383.2,147.5 407.4,106.5 431.6,152.1 455.8,149.0 480.0,61.0"/>
<polyline fill="none" stroke="#ff9944" stroke-width="1" stroke-dasharray="3,2" opacity="0.7" points="20.0,147.5 44.2,149.5 68.4,131.8 92.6,107.5 116.8,119.7 141.1,149.0 165.3,127.8 189.5,99.4 213.7,103.5 237.9,144.5 262.1,116.1 286.3,83.7 310.5,90.3 334.7,141.9 358.9,166.7 383.2,142.9 407.4,135.4 431.6,135.9 455.8,120.7 480.0,105.0"/>
<text x="10" y="13" font-size="9" fill="#aaa">Temp (°C) — last 20 readings</text>
<text x="495" y="13" font-size="7" fill="#445" text-anchor="end">— MA3</text>
<text x="10" y="212" font-size="8" fill="#445">Updated: 2026-05-13 19:39 UTC</text>
</svg>