<svg width="500" height="215" viewBox="0 0 500 215" xmlns="http://www.w3.org/2000/svg">
<rect width="500" height="215" fill="#0b1a2a"/>
<text x="5" y="24" font-size="8" fill="#556">23.8</text>
<text x="5" y="190" font-size="8" fill="#556">9.7</text>
<polyline fill="none" stroke="#00ffcc" stroke-width="2" points="20.0,91.1 44.2,128.5 68.4,143.0 92.6,155.0 116.8,103.2 141.1,116.5 165.3,140.6 189.5,164.7 213.7,71.8 237.9,110.4 262.1,156.2 286.3,190.0 310.5,33.3 334.7,98.4 358.9,159.9 383.2,180.4 407.4,20.0 431.6,93.5 455.8,143.0 480.0,162.3"/>
<polyline fill="none" stroke="#ff9944" stroke-width="1" stroke-dasharray="3,2" opacity="0.7" points="20.0,109.8 44.2,120.9 68.4,142.2 92.6,133.7 116.8,124.9 141.1,120.1 165.3,140.6 189.5,125.7 213.7,115.7 237.9,112.8 262.1,152.2 286.3,126.5 310.5,107.2 334.7,97.2 358.9,146.2 383.2,120.1 407.4,98.0 431.6,85.5 455.8,132.9 480.0,152.6"/>
<text x="10" y="13" font-size="9" fill="#aaa">Temp (°C) — last 20 readings</text>
<text x="495" y="13" font-size="7" fill="#445" text-anchor="end">— MA3</text>
<text x="10" y="212" font-size="8" fill="#445">Updated: 2026-04-30 13:20 UTC</text>
</svg>