<svg width="500" height="215" viewBox="0 0 500 215" xmlns="http://www.w3.org/2000/svg">
<rect width="500" height="215" fill="#0b1a2a"/>
<text x="5" y="24" font-size="8" fill="#556">22.3</text>
<text x="5" y="190" font-size="8" fill="#556">11.8</text>
<polyline fill="none" stroke="#00ffcc" stroke-width="2" points="20.0,160.9 44.2,186.8 68.4,20.0 92.6,91.2 116.8,152.8 141.1,123.6 165.3,57.2 189.5,73.4 213.7,131.7 237.9,170.6 262.1,101.0 286.3,84.8 310.5,151.1 334.7,154.4 358.9,112.3 383.2,117.1 407.4,180.3 431.6,190.0 455.8,68.6 480.0,113.9"/>
<polyline fill="none" stroke="#ff9944" stroke-width="1" stroke-dasharray="3,2" opacity="0.7" points="20.0,173.8 44.2,122.5 68.4,99.3 92.6,88.0 116.8,122.5 141.1,111.2 165.3,84.8 189.5,87.5 213.7,125.2 237.9,134.4 262.1,118.8 286.3,112.3 310.5,130.1 334.7,139.3 358.9,127.9 383.2,136.6 407.4,162.5 431.6,146.3 455.8,124.2 480.0,91.2"/>
<text x="10" y="13" font-size="9" fill="#aaa">Temp (°C) — last 20 readings</text>
<text x="495" y="13" font-size="7" fill="#445" text-anchor="end">— MA3</text>
<text x="10" y="212" font-size="8" fill="#445">Updated: 2026-05-05 01:55 UTC</text>
</svg>