<svg width="500" height="215" viewBox="0 0 500 215" xmlns="http://www.w3.org/2000/svg">
<rect width="500" height="215" fill="#0b1a2a"/>
<text x="5" y="24" font-size="8" fill="#556">20.0</text>
<text x="5" y="190" font-size="8" fill="#556">11.8</text>
<polyline fill="none" stroke="#00ffcc" stroke-width="2" points="20.0,63.5 44.2,142.3 68.4,105.0 92.6,20.0 116.8,40.7 141.1,115.4 165.3,165.1 189.5,76.0 213.7,55.2 237.9,140.2 262.1,144.4 286.3,90.5 310.5,96.7 334.7,177.6 358.9,190.0 383.2,34.5 407.4,92.6 431.6,136.1 455.8,181.7 480.0,40.7"/>
<polyline fill="none" stroke="#ff9944" stroke-width="1" stroke-dasharray="3,2" opacity="0.7" points="20.0,102.9 44.2,103.6 68.4,89.1 92.6,55.2 116.8,58.7 141.1,107.1 165.3,118.8 189.5,98.8 213.7,90.5 237.9,113.3 262.1,125.0 286.3,110.5 310.5,121.6 334.7,154.8 358.9,134.0 383.2,105.7 407.4,87.7 431.6,136.8 455.8,119.5 480.0,111.2"/>
<text x="10" y="13" font-size="9" fill="#aaa">Temp (°C) — last 20 readings</text>
<text x="495" y="13" font-size="7" fill="#445" text-anchor="end">— MA3</text>
<text x="10" y="212" font-size="8" fill="#445">Updated: 2026-05-05 19:05 UTC</text>
</svg>