<svg width="500" height="215" viewBox="0 0 500 215" xmlns="http://www.w3.org/2000/svg">
<rect width="500" height="215" fill="#0b1a2a"/>
<text x="5" y="24" font-size="8" fill="#556">22.7</text>
<text x="5" y="190" font-size="8" fill="#556">9.7</text>
<polyline fill="none" stroke="#00ffcc" stroke-width="2" points="20.0,72.3 44.2,131.2 68.4,157.3 92.6,23.9 116.8,68.4 141.1,119.4 165.3,119.4 189.5,82.8 213.7,123.3 237.9,139.0 262.1,152.1 286.3,95.8 310.5,110.2 334.7,136.4 358.9,162.5 383.2,61.8 407.4,103.7 431.6,153.4 455.8,190.0 480.0,20.0"/>
<polyline fill="none" stroke="#ff9944" stroke-width="1" stroke-dasharray="3,2" opacity="0.7" points="20.0,101.7 44.2,120.3 68.4,104.1 92.6,83.2 116.8,70.6 141.1,102.4 165.3,107.2 189.5,108.5 213.7,115.0 237.9,138.1 262.1,129.0 286.3,119.4 310.5,114.2 334.7,136.4 358.9,120.3 383.2,109.4 407.4,106.3 431.6,149.0 455.8,121.1 480.0,105.0"/>
<text x="10" y="13" font-size="9" fill="#aaa">Temp (°C) — last 20 readings</text>
<text x="495" y="13" font-size="7" fill="#445" text-anchor="end">— MA3</text>
<text x="10" y="212" font-size="8" fill="#445">Updated: 2026-04-28 19:19 UTC</text>
</svg>