<svg width="500" height="215" viewBox="0 0 500 215" xmlns="http://www.w3.org/2000/svg">
<rect width="500" height="215" fill="#0b1a2a"/>
<text x="5" y="24" font-size="8" fill="#556">23.8</text>
<text x="5" y="190" font-size="8" fill="#556">9.7</text>
<polyline fill="none" stroke="#00ffcc" stroke-width="2" points="20.0,128.5 44.2,143.0 68.4,155.0 92.6,103.2 116.8,116.5 141.1,140.6 165.3,164.7 189.5,71.8 213.7,110.4 237.9,156.2 262.1,190.0 286.3,33.3 310.5,98.4 334.7,159.9 358.9,180.4 383.2,20.0 407.4,93.5 431.6,143.0 455.8,162.3 480.0,38.1"/>
<polyline fill="none" stroke="#ff9944" stroke-width="1" stroke-dasharray="3,2" opacity="0.7" points="20.0,135.7 44.2,142.2 68.4,133.7 92.6,124.9 116.8,120.1 141.1,140.6 165.3,125.7 189.5,115.7 213.7,112.8 237.9,152.2 262.1,126.5 286.3,107.2 310.5,97.2 334.7,146.2 358.9,120.1 383.2,98.0 407.4,85.5 431.6,132.9 455.8,114.4 480.0,100.2"/>
<text x="10" y="13" font-size="9" fill="#aaa">Temp (°C) — last 20 readings</text>
<text x="495" y="13" font-size="7" fill="#445" text-anchor="end">— MA3</text>
<text x="10" y="212" font-size="8" fill="#445">Updated: 2026-04-30 19:05 UTC</text>
</svg>