<svg width="500" height="215" viewBox="0 0 500 215" xmlns="http://www.w3.org/2000/svg">
<rect width="500" height="215" fill="#0b1a2a"/>
<text x="5" y="24" font-size="8" fill="#556">24.6</text>
<text x="5" y="190" font-size="8" fill="#556">13.6</text>
<polyline fill="none" stroke="#00ffcc" stroke-width="2" points="20.0,20.0 44.2,74.1 68.4,180.7 92.6,177.6 116.8,149.8 141.1,108.1 165.3,154.5 189.5,151.4 213.7,61.7 237.9,123.5 262.1,190.0 286.3,171.5 310.5,95.7 334.7,114.3 358.9,183.8 383.2,157.5 407.4,72.5 431.6,120.5 455.8,154.5 480.0,154.5"/>
<polyline fill="none" stroke="#ff9944" stroke-width="1" stroke-dasharray="3,2" opacity="0.7" points="20.0,47.0 44.2,91.6 68.4,144.2 92.6,169.4 116.8,145.2 141.1,137.5 165.3,138.0 189.5,122.5 213.7,112.2 237.9,125.1 262.1,161.7 286.3,152.4 310.5,127.2 334.7,131.3 358.9,151.9 383.2,138.0 407.4,116.8 431.6,115.8 455.8,143.1 480.0,154.5"/>
<text x="10" y="13" font-size="9" fill="#aaa">Temp (°C) — last 20 readings</text>
<text x="495" y="13" font-size="7" fill="#445" text-anchor="end">— MA3</text>
<text x="10" y="212" font-size="8" fill="#445">Updated: 2026-05-16 12:58 UTC</text>
</svg>