<svg width="500" height="215" viewBox="0 0 500 215" xmlns="http://www.w3.org/2000/svg">
<rect width="500" height="215" fill="#0b1a2a"/>
<text x="5" y="24" font-size="8" fill="#556">25.1</text>
<text x="5" y="190" font-size="8" fill="#556">12.1</text>
<polyline fill="none" stroke="#00ffcc" stroke-width="2" points="20.0,179.5 44.2,179.5 68.4,180.8 92.6,190.0 116.8,39.6 141.1,77.5 165.3,77.5 189.5,102.4 213.7,174.3 237.9,184.8 262.1,65.8 286.3,95.8 310.5,163.8 334.7,183.5 358.9,85.4 383.2,78.8 407.4,153.4 431.6,182.2 455.8,20.0 480.0,76.2"/>
<polyline fill="none" stroke="#ff9944" stroke-width="1" stroke-dasharray="3,2" opacity="0.7" points="20.0,179.5 44.2,180.0 68.4,183.5 92.6,136.8 116.8,102.4 141.1,64.9 165.3,85.8 189.5,118.1 213.7,153.8 237.9,141.6 262.1,115.5 286.3,108.5 310.5,147.7 334.7,144.2 358.9,115.9 383.2,105.9 407.4,138.1 431.6,118.5 455.8,92.8 480.0,48.1"/>
<text x="10" y="13" font-size="9" fill="#aaa">Temp (°C) — last 20 readings</text>
<text x="495" y="13" font-size="7" fill="#445" text-anchor="end">— MA3</text>
<text x="10" y="212" font-size="8" fill="#445">Updated: 2026-04-19 01:45 UTC</text>
</svg>