<svg width="500" height="215" viewBox="0 0 500 215" xmlns="http://www.w3.org/2000/svg">
<rect width="500" height="215" fill="#0b1a2a"/>
<text x="5" y="24" font-size="8" fill="#556">23.8</text>
<text x="5" y="190" font-size="8" fill="#556">9.7</text>
<polyline fill="none" stroke="#00ffcc" stroke-width="2" points="20.0,140.6 44.2,164.7 68.4,71.8 92.6,110.4 116.8,156.2 141.1,190.0 165.3,33.3 189.5,98.4 213.7,159.9 237.9,180.4 262.1,20.0 286.3,93.5 310.5,143.0 334.7,162.3 358.9,38.1 383.2,91.1 407.4,137.0 431.6,115.2 455.8,65.8 480.0,77.9"/>
<polyline fill="none" stroke="#ff9944" stroke-width="1" stroke-dasharray="3,2" opacity="0.7" points="20.0,152.6 44.2,125.7 68.4,115.7 92.6,112.8 116.8,152.2 141.1,126.5 165.3,107.2 189.5,97.2 213.7,146.2 237.9,120.1 262.1,98.0 286.3,85.5 310.5,132.9 334.7,114.4 358.9,97.2 383.2,88.7 407.4,114.4 431.6,106.0 455.8,86.3 480.0,71.8"/>
<text x="10" y="13" font-size="9" fill="#aaa">Temp (°C) — last 20 readings</text>
<text x="495" y="13" font-size="7" fill="#445" text-anchor="end">— MA3</text>
<text x="10" y="212" font-size="8" fill="#445">Updated: 2026-05-02 01:51 UTC</text>
</svg>