<svg width="500" height="215" viewBox="0 0 500 215" xmlns="http://www.w3.org/2000/svg">
<rect width="500" height="215" fill="#0b1a2a"/>
<text x="5" y="24" font-size="8" fill="#556">25.2</text>
<text x="5" y="190" font-size="8" fill="#556">11.3</text>
<polyline fill="none" stroke="#00ffcc" stroke-width="2" points="20.0,75.0 44.2,98.3 68.4,165.5 92.6,175.3 116.8,64.0 141.1,92.2 165.3,155.8 189.5,174.1 213.7,82.4 237.9,76.3 262.1,146.0 286.3,172.9 310.5,21.2 334.7,73.8 358.9,135.0 383.2,155.8 407.4,20.0 431.6,92.2 455.8,158.2 480.0,190.0"/>
<polyline fill="none" stroke="#ff9944" stroke-width="1" stroke-dasharray="3,2" opacity="0.7" points="20.0,86.7 44.2,112.9 68.4,146.4 92.6,135.0 116.8,110.5 141.1,104.0 165.3,140.7 189.5,137.4 213.7,110.9 237.9,101.5 262.1,131.7 286.3,113.4 310.5,89.3 334.7,76.7 358.9,121.5 383.2,103.6 407.4,89.3 431.6,90.1 455.8,146.8 480.0,174.1"/>
<text x="10" y="13" font-size="9" fill="#aaa">Temp (°C) — last 20 readings</text>
<text x="495" y="13" font-size="7" fill="#445" text-anchor="end">— MA3</text>
<text x="10" y="212" font-size="8" fill="#445">Updated: 2026-04-20 13:06 UTC</text>
</svg>