<svg width="500" height="215" viewBox="0 0 500 215" xmlns="http://www.w3.org/2000/svg">
<rect width="500" height="215" fill="#0b1a2a"/>
<text x="5" y="24" font-size="8" fill="#556">25.1</text>
<text x="5" y="190" font-size="8" fill="#556">11.0</text>
<polyline fill="none" stroke="#00ffcc" stroke-width="2" points="20.0,123.7 44.2,149.0 68.4,175.5 92.6,93.5 116.8,117.7 141.1,173.1 165.3,190.0 189.5,52.6 213.7,104.4 237.9,161.1 262.1,176.7 286.3,20.0 310.5,103.2 334.7,143.0 358.9,132.1 383.2,65.8 407.4,108.0 431.6,146.6 455.8,132.1 480.0,65.8"/>
<polyline fill="none" stroke="#ff9944" stroke-width="1" stroke-dasharray="3,2" opacity="0.7" points="20.0,136.3 44.2,149.4 68.4,139.4 92.6,128.9 116.8,128.1 141.1,160.3 165.3,138.6 189.5,115.7 213.7,106.0 237.9,147.4 262.1,119.3 286.3,100.0 310.5,88.7 334.7,126.1 358.9,113.6 383.2,102.0 407.4,106.8 431.6,128.9 455.8,114.8 480.0,99.0"/>
<text x="10" y="13" font-size="9" fill="#aaa">Temp (°C) — last 20 readings</text>
<text x="495" y="13" font-size="7" fill="#445" text-anchor="end">— MA3</text>
<text x="10" y="212" font-size="8" fill="#445">Updated: 2026-05-09 18:44 UTC</text>
</svg>