<svg width="500" height="215" viewBox="0 0 500 215" xmlns="http://www.w3.org/2000/svg">
<rect width="500" height="215" fill="#0b1a2a"/>
<text x="5" y="24" font-size="8" fill="#556">25.1</text>
<text x="5" y="190" font-size="8" fill="#556">11.0</text>
<polyline fill="none" stroke="#00ffcc" stroke-width="2" points="20.0,126.1 44.2,173.1 68.4,180.4 92.6,89.9 116.8,123.7 141.1,149.0 165.3,175.5 189.5,93.5 213.7,117.7 237.9,173.1 262.1,190.0 286.3,52.6 310.5,104.4 334.7,161.1 358.9,176.7 383.2,20.0 407.4,103.2 431.6,143.0 455.8,132.1 480.0,65.8"/>
<polyline fill="none" stroke="#ff9944" stroke-width="1" stroke-dasharray="3,2" opacity="0.7" points="20.0,149.6 44.2,159.9 68.4,147.8 92.6,131.3 116.8,120.9 141.1,149.4 165.3,139.4 189.5,128.9 213.7,128.1 237.9,160.3 262.1,138.6 286.3,115.7 310.5,106.0 334.7,147.4 358.9,119.3 383.2,100.0 407.4,88.7 431.6,126.1 455.8,113.6 480.0,99.0"/>
<text x="10" y="13" font-size="9" fill="#aaa">Temp (°C) — last 20 readings</text>
<text x="495" y="13" font-size="7" fill="#445" text-anchor="end">— MA3</text>
<text x="10" y="212" font-size="8" fill="#445">Updated: 2026-05-08 19:03 UTC</text>
</svg>