<svg width="500" height="215" viewBox="0 0 500 215" xmlns="http://www.w3.org/2000/svg">
<rect width="500" height="215" fill="#0b1a2a"/>
<text x="5" y="24" font-size="8" fill="#556">22.7</text>
<text x="5" y="190" font-size="8" fill="#556">9.7</text>
<polyline fill="none" stroke="#00ffcc" stroke-width="2" points="20.0,157.3 44.2,23.9 68.4,68.4 92.6,119.4 116.8,119.4 141.1,82.8 165.3,123.3 189.5,139.0 213.7,152.1 237.9,95.8 262.1,110.2 286.3,136.4 310.5,162.5 334.7,61.8 358.9,103.7 383.2,153.4 407.4,190.0 431.6,20.0 455.8,90.6 480.0,157.3"/>
<polyline fill="none" stroke="#ff9944" stroke-width="1" stroke-dasharray="3,2" opacity="0.7" points="20.0,90.6 44.2,83.2 68.4,70.6 92.6,102.4 116.8,107.2 141.1,108.5 165.3,115.0 189.5,138.1 213.7,129.0 237.9,119.4 262.1,114.2 286.3,136.4 310.5,120.3 334.7,109.4 358.9,106.3 383.2,149.0 407.4,121.1 431.6,100.2 455.8,89.3 480.0,124.0"/>
<text x="10" y="13" font-size="9" fill="#aaa">Temp (°C) — last 20 readings</text>
<text x="495" y="13" font-size="7" fill="#445" text-anchor="end">— MA3</text>
<text x="10" y="212" font-size="8" fill="#445">Updated: 2026-04-29 08:00 UTC</text>
</svg>