<svg width="500" height="215" viewBox="0 0 500 215" xmlns="http://www.w3.org/2000/svg">
<rect width="500" height="215" fill="#0b1a2a"/>
<text x="5" y="24" font-size="8" fill="#556">22.4</text>
<text x="5" y="190" font-size="8" fill="#556">9.7</text>
<polyline fill="none" stroke="#00ffcc" stroke-width="2" points="20.0,29.4 44.2,69.5 68.4,129.8 92.6,156.5 116.8,20.0 141.1,65.5 165.3,117.7 189.5,117.7 213.7,80.2 237.9,121.7 262.1,137.8 286.3,151.2 310.5,93.6 334.7,108.3 358.9,135.1 383.2,161.9 407.4,58.8 431.6,101.7 455.8,152.5 480.0,190.0"/>
<polyline fill="none" stroke="#ff9944" stroke-width="1" stroke-dasharray="3,2" opacity="0.7" points="20.0,49.4 44.2,76.2 68.4,118.6 92.6,102.1 116.8,80.7 141.1,67.7 165.3,100.3 189.5,105.2 213.7,106.6 237.9,113.3 262.1,136.9 286.3,127.5 310.5,117.7 334.7,112.4 358.9,135.1 383.2,118.6 407.4,107.5 431.6,104.3 455.8,148.1 480.0,171.3"/>
<text x="10" y="13" font-size="9" fill="#aaa">Temp (°C) — last 20 readings</text>
<text x="495" y="13" font-size="7" fill="#445" text-anchor="end">— MA3</text>
<text x="10" y="212" font-size="8" fill="#445">Updated: 2026-04-28 13:28 UTC</text>
</svg>