<svg width="500" height="215" viewBox="0 0 500 215" xmlns="http://www.w3.org/2000/svg">
<rect width="500" height="215" fill="#0b1a2a"/>
<text x="5" y="24" font-size="8" fill="#556">25.1</text>
<text x="5" y="190" font-size="8" fill="#556">11.0</text>
<polyline fill="none" stroke="#00ffcc" stroke-width="2" points="20.0,122.5 44.2,126.1 68.4,173.1 92.6,180.4 116.8,89.9 141.1,123.7 165.3,149.0 189.5,175.5 213.7,93.5 237.9,117.7 262.1,173.1 286.3,190.0 310.5,52.6 334.7,104.4 358.9,161.1 383.2,176.7 407.4,20.0 431.6,103.2 455.8,143.0 480.0,132.1"/>
<polyline fill="none" stroke="#ff9944" stroke-width="1" stroke-dasharray="3,2" opacity="0.7" points="20.0,124.3 44.2,140.6 68.4,159.9 92.6,147.8 116.8,131.3 141.1,120.9 165.3,149.4 189.5,139.4 213.7,128.9 237.9,128.1 262.1,160.3 286.3,138.6 310.5,115.7 334.7,106.0 358.9,147.4 383.2,119.3 407.4,100.0 431.6,88.7 455.8,126.1 480.0,137.6"/>
<text x="10" y="13" font-size="9" fill="#aaa">Temp (°C) — last 20 readings</text>
<text x="495" y="13" font-size="7" fill="#445" text-anchor="end">— MA3</text>
<text x="10" y="212" font-size="8" fill="#445">Updated: 2026-05-08 13:08 UTC</text>
</svg>