<svg width="500" height="215" viewBox="0 0 500 215" xmlns="http://www.w3.org/2000/svg">
<rect width="500" height="215" fill="#0b1a2a"/>
<text x="5" y="24" font-size="8" fill="#556">22.0</text>
<text x="5" y="190" font-size="8" fill="#556">13.6</text>
<polyline fill="none" stroke="#00ffcc" stroke-width="2" points="20.0,143.5 44.2,139.4 68.4,22.0 92.6,103.0 116.8,190.0 141.1,165.7 165.3,66.5 189.5,90.8 213.7,181.9 237.9,147.5 262.1,36.2 286.3,98.9 310.5,143.5 334.7,143.5 358.9,20.0 383.2,82.7 407.4,133.3 431.6,137.4 455.8,40.2 480.0,98.9"/>
<polyline fill="none" stroke="#ff9944" stroke-width="1" stroke-dasharray="3,2" opacity="0.7" points="20.0,141.4 44.2,101.6 68.4,88.1 92.6,105.0 116.8,152.9 141.1,140.8 165.3,107.7 189.5,113.1 213.7,140.1 237.9,121.9 262.1,94.2 286.3,92.9 310.5,128.6 334.7,102.3 358.9,82.1 383.2,78.7 407.4,117.8 431.6,103.7 455.8,92.2 480.0,69.6"/>
<text x="10" y="13" font-size="9" fill="#aaa">Temp (°C) — last 20 readings</text>
<text x="495" y="13" font-size="7" fill="#445" text-anchor="end">— MA3</text>
<text x="10" y="212" font-size="8" fill="#445">Updated: 2026-05-18 02:26 UTC</text>
</svg>