<svg width="500" height="215" viewBox="0 0 500 215" xmlns="http://www.w3.org/2000/svg">
<rect width="500" height="215" fill="#0b1a2a"/>
<text x="5" y="24" font-size="8" fill="#556">25.1</text>
<text x="5" y="190" font-size="8" fill="#556">11.0</text>
<polyline fill="none" stroke="#00ffcc" stroke-width="2" points="20.0,173.1 44.2,190.0 68.4,52.6 92.6,104.4 116.8,161.1 141.1,176.7 165.3,20.0 189.5,103.2 213.7,143.0 237.9,132.1 262.1,65.8 286.3,108.0 310.5,146.6 334.7,132.1 358.9,65.8 383.2,88.7 407.4,161.1 431.6,135.7 455.8,38.1 480.0,93.5"/>
<polyline fill="none" stroke="#ff9944" stroke-width="1" stroke-dasharray="3,2" opacity="0.7" points="20.0,181.6 44.2,138.6 68.4,115.7 92.6,106.0 116.8,147.4 141.1,119.3 165.3,100.0 189.5,88.7 213.7,126.1 237.9,113.6 262.1,102.0 286.3,106.8 310.5,128.9 334.7,114.8 358.9,95.6 383.2,105.2 407.4,128.5 431.6,111.6 455.8,89.1 480.0,65.8"/>
<text x="10" y="13" font-size="9" fill="#aaa">Temp (°C) — last 20 readings</text>
<text x="495" y="13" font-size="7" fill="#445" text-anchor="end">— MA3</text>
<text x="10" y="212" font-size="8" fill="#445">Updated: 2026-05-11 02:07 UTC</text>
</svg>