<svg width="500" height="215" viewBox="0 0 500 215" xmlns="http://www.w3.org/2000/svg">
<rect width="500" height="215" fill="#0b1a2a"/>
<text x="5" y="24" font-size="8" fill="#556">25.2</text>
<text x="5" y="190" font-size="8" fill="#556">11.3</text>
<polyline fill="none" stroke="#00ffcc" stroke-width="2" points="20.0,165.5 44.2,175.3 68.4,64.0 92.6,92.2 116.8,155.8 141.1,174.1 165.3,82.4 189.5,76.3 213.7,146.0 237.9,172.9 262.1,21.2 286.3,73.8 310.5,135.0 334.7,155.8 358.9,20.0 383.2,92.2 407.4,158.2 431.6,190.0 455.8,51.8 480.0,89.7"/>
<polyline fill="none" stroke="#ff9944" stroke-width="1" stroke-dasharray="3,2" opacity="0.7" points="20.0,170.4 44.2,135.0 68.4,110.5 92.6,104.0 116.8,140.7 141.1,137.4 165.3,110.9 189.5,101.5 213.7,131.7 237.9,113.4 262.1,89.3 286.3,76.7 310.5,121.5 334.7,103.6 358.9,89.3 383.2,90.1 407.4,146.8 431.6,133.3 455.8,110.5 480.0,70.8"/>
<text x="10" y="13" font-size="9" fill="#aaa">Temp (°C) — last 20 readings</text>
<text x="495" y="13" font-size="7" fill="#445" text-anchor="end">— MA3</text>
<text x="10" y="212" font-size="8" fill="#445">Updated: 2026-04-21 01:28 UTC</text>
</svg>