<svg width="500" height="215" viewBox="0 0 500 215" xmlns="http://www.w3.org/2000/svg">
<rect width="500" height="215" fill="#0b1a2a"/>
<text x="5" y="24" font-size="8" fill="#556">23.8</text>
<text x="5" y="190" font-size="8" fill="#556">10.5</text>
<polyline fill="none" stroke="#00ffcc" stroke-width="2" points="20.0,168.3 44.2,190.0 68.4,20.0 92.6,98.0 116.8,150.4 141.1,170.8 165.3,39.2 189.5,95.4 213.7,144.0 237.9,121.0 262.1,68.6 286.3,81.4 310.5,127.4 334.7,158.0 358.9,103.1 383.2,90.3 407.4,142.7 431.6,145.3 455.8,112.0 480.0,115.9"/>
<polyline fill="none" stroke="#ff9944" stroke-width="1" stroke-dasharray="3,2" opacity="0.7" points="20.0,179.1 44.2,126.1 68.4,102.7 92.6,89.4 116.8,139.7 141.1,120.1 165.3,101.8 189.5,92.9 213.7,120.1 237.9,111.2 262.1,90.3 286.3,92.4 310.5,122.3 334.7,129.5 358.9,117.1 383.2,112.0 407.4,126.1 431.6,133.3 455.8,124.4 480.0,113.9"/>
<text x="10" y="13" font-size="9" fill="#aaa">Temp (°C) — last 20 readings</text>
<text x="495" y="13" font-size="7" fill="#445" text-anchor="end">— MA3</text>
<text x="10" y="212" font-size="8" fill="#445">Updated: 2026-05-04 01:55 UTC</text>
</svg>