<svg width="500" height="215" viewBox="0 0 500 215" xmlns="http://www.w3.org/2000/svg">
<rect width="500" height="215" fill="#0b1a2a"/>
<text x="5" y="24" font-size="8" fill="#556">24.6</text>
<text x="5" y="190" font-size="8" fill="#556">13.4</text>
<polyline fill="none" stroke="#00ffcc" stroke-width="2" points="20.0,153.6 44.2,70.1 68.4,123.2 92.6,171.8 116.8,153.6 141.1,70.1 165.3,98.9 189.5,190.0 213.7,158.1 237.9,35.2 262.1,105.0 286.3,170.3 310.5,158.1 334.7,20.0 358.9,73.1 383.2,177.9 407.4,174.8 431.6,147.5 455.8,106.5 480.0,152.1"/>
<polyline fill="none" stroke="#ff9944" stroke-width="1" stroke-dasharray="3,2" opacity="0.7" points="20.0,111.8 44.2,115.6 68.4,121.7 92.6,149.5 116.8,131.8 141.1,107.5 165.3,119.7 189.5,149.0 213.7,127.8 237.9,99.4 262.1,103.5 286.3,144.5 310.5,116.1 334.7,83.7 358.9,90.3 383.2,141.9 407.4,166.7 431.6,142.9 455.8,135.4 480.0,129.3"/>
<text x="10" y="13" font-size="9" fill="#aaa">Temp (°C) — last 20 readings</text>
<text x="495" y="13" font-size="7" fill="#445" text-anchor="end">— MA3</text>
<text x="10" y="212" font-size="8" fill="#445">Updated: 2026-05-13 08:33 UTC</text>
</svg>