<svg width="500" height="215" viewBox="0 0 500 215" xmlns="http://www.w3.org/2000/svg">
<rect width="500" height="215" fill="#0b1a2a"/>
<text x="5" y="24" font-size="8" fill="#556">23.8</text>
<text x="5" y="190" font-size="8" fill="#556">10.5</text>
<polyline fill="none" stroke="#00ffcc" stroke-width="2" points="20.0,34.1 44.2,103.1 68.4,168.3 92.6,190.0 116.8,20.0 141.1,98.0 165.3,150.4 189.5,170.8 213.7,39.2 237.9,95.4 262.1,144.0 286.3,121.0 310.5,68.6 334.7,81.4 358.9,127.4 383.2,158.0 407.4,103.1 431.6,90.3 455.8,142.7 480.0,145.3"/>
<polyline fill="none" stroke="#ff9944" stroke-width="1" stroke-dasharray="3,2" opacity="0.7" points="20.0,68.6 44.2,101.8 68.4,153.8 92.6,126.1 116.8,102.7 141.1,89.4 165.3,139.7 189.5,120.1 213.7,101.8 237.9,92.9 262.1,120.1 286.3,111.2 310.5,90.3 334.7,92.4 358.9,122.3 383.2,129.5 407.4,117.1 431.6,112.0 455.8,126.1 480.0,144.0"/>
<text x="10" y="13" font-size="9" fill="#aaa">Temp (°C) — last 20 readings</text>
<text x="495" y="13" font-size="7" fill="#445" text-anchor="end">— MA3</text>
<text x="10" y="212" font-size="8" fill="#445">Updated: 2026-05-03 12:45 UTC</text>
</svg>