<svg width="500" height="215" viewBox="0 0 500 215" xmlns="http://www.w3.org/2000/svg">
<rect width="500" height="215" fill="#0b1a2a"/>
<text x="5" y="24" font-size="8" fill="#556">25.2</text>
<text x="5" y="190" font-size="8" fill="#556">10.9</text>
<polyline fill="none" stroke="#00ffcc" stroke-width="2" points="20.0,152.0 44.2,20.0 68.4,90.1 92.6,154.3 116.8,185.2 141.1,50.9 165.3,87.8 189.5,154.3 213.7,184.1 237.9,85.4 262.1,98.5 286.3,160.3 310.5,190.0 334.7,80.6 358.9,115.1 383.2,161.5 407.4,187.6 431.6,61.6 455.8,97.3 480.0,150.8"/>
<polyline fill="none" stroke="#ff9944" stroke-width="1" stroke-dasharray="3,2" opacity="0.7" points="20.0,86.0 44.2,87.4 68.4,88.2 92.6,143.2 116.8,130.2 141.1,108.0 165.3,97.7 189.5,142.1 213.7,141.3 237.9,122.6 262.1,114.7 286.3,149.6 310.5,143.6 334.7,128.6 358.9,119.1 383.2,154.7 407.4,136.9 431.6,115.5 455.8,103.2 480.0,124.0"/>
<text x="10" y="13" font-size="9" fill="#aaa">Temp (°C) — last 20 readings</text>
<text x="495" y="13" font-size="7" fill="#445" text-anchor="end">— MA3</text>
<text x="10" y="212" font-size="8" fill="#445">Updated: 2026-04-24 07:48 UTC</text>
</svg>