<svg width="500" height="215" viewBox="0 0 500 215" xmlns="http://www.w3.org/2000/svg">
<rect width="500" height="215" fill="#0b1a2a"/>
<text x="5" y="24" font-size="8" fill="#556">23.8</text>
<text x="5" y="190" font-size="8" fill="#556">9.7</text>
<polyline fill="none" stroke="#00ffcc" stroke-width="2" points="20.0,103.2 44.2,116.5 68.4,140.6 92.6,164.7 116.8,71.8 141.1,110.4 165.3,156.2 189.5,190.0 213.7,33.3 237.9,98.4 262.1,159.9 286.3,180.4 310.5,20.0 334.7,93.5 358.9,143.0 383.2,162.3 407.4,38.1 431.6,91.1 455.8,137.0 480.0,115.2"/>
<polyline fill="none" stroke="#ff9944" stroke-width="1" stroke-dasharray="3,2" opacity="0.7" points="20.0,109.8 44.2,120.1 68.4,140.6 92.6,125.7 116.8,115.7 141.1,112.8 165.3,152.2 189.5,126.5 213.7,107.2 237.9,97.2 262.1,146.2 286.3,120.1 310.5,98.0 334.7,85.5 358.9,132.9 383.2,114.4 407.4,97.2 431.6,88.7 455.8,114.4 480.0,126.1"/>
<text x="10" y="13" font-size="9" fill="#aaa">Temp (°C) — last 20 readings</text>
<text x="495" y="13" font-size="7" fill="#445" text-anchor="end">— MA3</text>
<text x="10" y="212" font-size="8" fill="#445">Updated: 2026-05-01 12:55 UTC</text>
</svg>